<?xml version="1.0" encoding="UTF-8" standalone="no"?>
<!-- Created with Inkscape (http://www.inkscape.org/) -->

<svg
   width="290"
   height="250"
   viewBox="0 0 290 250"
   version="1.1"
   id="svg5"
   sodipodi:docname="cat_1_1.svg"
   inkscape:version="1.2.2 (b0a8486541, 2022-12-01, custom)"
   xmlns:inkscape="http://www.inkscape.org/namespaces/inkscape"
   xmlns:sodipodi="http://sodipodi.sourceforge.net/DTD/sodipodi-0.dtd"
   xmlns="http://www.w3.org/2000/svg"
   xmlns:svg="http://www.w3.org/2000/svg">
  <sodipodi:namedview
     id="namedview7"
     pagecolor="#ffffff"
     bordercolor="#666666"
     borderopacity="1.0"
     inkscape:showpageshadow="2"
     inkscape:pageopacity="0.0"
     inkscape:pagecheckerboard="0"
     inkscape:deskcolor="#d1d1d1"
     inkscape:document-units="px"
     showgrid="false"
     inkscape:zoom="0.89187739"
     inkscape:cx="114.3655"
     inkscape:cy="199.01839"
     inkscape:window-width="1848"
     inkscape:window-height="1016"
     inkscape:window-x="72"
     inkscape:window-y="27"
     inkscape:window-maximized="1"
     inkscape:current-layer="layer1" />
  <defs
     id="defs2" />
  <g
     inkscape:label="Layer 1"
     inkscape:groupmode="layer"
     id="layer1">
    <path
       style="fill:#ebecf0;fill-opacity:1;stroke:none;stroke-width:0.877571;stroke-linecap:butt;stroke-linejoin:miter;stroke-dasharray:none;stroke-opacity:1"
       d="M 3.1859951,124.73689 74.174455,1.7110153 H 216.27567 L 287.186,124.60129 216.1487,247.71101 H 74.284328 Z"
       id="path434" />
    <path
       class="cls-1"
       d="m 121.79594,145.07629 q -3.22527,0 -5.49202,-0.98153 a 9.4566834,9.4566834 0 0 1 -3.66912,-2.71099 10.872564,10.872564 0 0 1 -2.03328,-4.04316 18.85423,18.85423 0 0 1 -0.63107,-4.97786 v -20.37887 h 3.17834 v 19.95836 a 14.94011,14.94011 0 0 0 0.63107,4.6038 8.881904,8.881904 0 0 0 1.75287,3.20174 6.8363573,6.8363573 0 0 0 2.7108,1.86978 10.687237,10.687237 0 0 0 7.10462,0 6.8438281,6.8438281 0 0 0 2.711,-1.86978 8.8816727,8.8816727 0 0 0 1.75269,-3.20174 14.94011,14.94011 0 0 0 0.63105,-4.6038 v -19.95836 h 3.17834 v 20.37887 a 18.862307,18.862307 0 0 1 -0.63087,4.97786 10.872497,10.872497 0 0 1 -2.03329,4.04316 9.4638293,9.4638293 0 0 1 -3.66909,2.71099 q -2.26765,0.98144 -5.49204,0.98153 z"
       id="path224"
       style="fill:#1d1d1b;stroke-width:0.198161" />
    <path
       class="cls-1"
       d="m 144.04874,121.65928 q 0.7942,-0.60697 2.54747,-1.28534 a 11.457838,11.457838 0 0 1 4.13644,-0.6779 11.023541,11.023541 0 0 1 4.65081,0.93488 9.6699857,9.6699857 0 0 1 3.43534,2.61753 11.560238,11.560238 0 0 1 2.12675,3.99634 16.907892,16.907892 0 0 1 0.72453,5.07132 15.146652,15.146652 0 0 1 -0.86483,5.28168 11.36767,11.36767 0 0 1 -2.43039,3.97292 10.454,10.454 0 0 1 -3.73934,2.50064 12.984985,12.984985 0 0 1 -4.83755,0.86465 q -3.22527,0 -5.32852,-0.42053 a 27.274504,27.274504 0 0 1 -3.45874,-0.88824 v -34.96188 l 3.03803,-0.56093 z m 0,19.86479 a 13.397197,13.397197 0 0 0 2.07994,0.44394 24.980066,24.980066 0 0 0 3.62245,0.21035 q 3.92628,0 6.31004,-2.54728 2.38375,-2.54716 2.38375,-7.31497 a 16.699753,16.699753 0 0 0 -0.42071,-3.80939 8.9373602,8.9373602 0 0 0 -1.35541,-3.1317 6.7934731,6.7934731 0 0 0 -2.45398,-2.12657 q -1.51932,-0.79419 -3.76258,-0.79458 a 9.7831838,9.7831838 0 0 0 -2.05651,0.21034 11.962203,11.962203 0 0 0 -1.82293,0.53741 10.079829,10.079829 0 0 0 -1.47228,0.70112 10.400542,10.400542 0 0 0 -1.05178,0.70111 z"
       id="path226"
       style="fill:#1d1d1b;stroke-width:0.198161" />
    <path
       class="cls-1"
       d="m 186.16653,143.53375 q -1.35617,0.37476 -3.64587,0.84143 a 28.62096,28.62096 0 0 1 -5.60874,0.46735 q -2.71147,0 -4.53392,-0.79459 a 7.3586672,7.3586672 0 0 1 -2.94476,-2.24346 9.0840492,9.0840492 0 0 1 -1.61238,-3.50558 19.530725,19.530725 0 0 1 -0.49077,-4.53391 v -13.55476 h 3.03804 v 12.57323 a 21.46369,21.46369 0 0 0 0.37387,4.34698 q 0.37359,1.77679 1.21529,2.87451 a 4.7428929,4.7428929 0 0 0 2.1734,1.58919 9.4395883,9.4395883 0 0 0 3.24858,0.49074 25.984844,25.984844 0 0 0 3.73916,-0.23376 q 1.58868,-0.23339 2.00986,-0.42052 v -21.22037 h 3.03824 z"
       id="path228"
       style="fill:#1d1d1b;stroke-width:0.198161" />
    <path
       class="cls-1"
       d="m 193.34506,121.05163 q 1.35502,-0.37358 3.6457,-0.8414 a 28.61343,28.61343 0 0 1 5.60891,-0.46734 q 2.75734,0 4.60399,0.79457 a 7.0791457,7.0791457 0 0 1 2.94455,2.26686 9.2611883,9.2611883 0 0 1 1.56595,3.529 20.515333,20.515333 0 0 1 0.46734,4.53373 v 13.50813 h -3.03821 v -12.52642 a 22.886954,22.886954 0 0 0 -0.35046,-4.34698 7.260795,7.260795 0 0 0 -1.16847,-2.89793 4.5455946,4.5455946 0 0 0 -2.15017,-1.61257 q -1.33209,-0.49057 -3.34186,-0.49076 a 25.587466,25.587466 0 0 0 -3.71595,0.23376 q -1.56661,0.23424 -2.03328,0.4207 v 21.2202 h -3.03804 z"
       id="path230"
       style="fill:#1d1d1b;stroke-width:0.198161" />
    <path
       class="cls-1"
       d="m 222.01047,120.21023 h 9.62866 v 2.57068 h -9.62866 v 12.85383 a 13.049161,13.049161 0 0 0 0.35065,3.34186 4.655424,4.655424 0 0 0 1.00494,1.98647 3.1808616,3.1808616 0 0 0 1.58916,0.93488 8.4557225,8.4557225 0 0 0 2.0565,0.23357 q 1.91614,0 3.08488,-0.44391 a 13.403666,13.403666 0 0 0 1.82293,-0.81801 l 0.74777,2.52405 q -0.65487,0.42061 -2.29029,0.95811 a 11.335771,11.335771 0 0 1 -3.55221,0.53759 q -2.24354,0 -3.76256,-0.58423 a 5.4371738,5.4371738 0 0 1 -2.43058,-1.77609 7.2784037,7.2784037 0 0 1 -1.28535,-2.9682 20.620229,20.620229 0 0 1 -0.37388,-4.20667 V 113.1057 l 3.03804,-0.56091 z"
       id="path232"
       style="fill:#1d1d1b;stroke-width:0.198161" />
    <path
       class="cls-1"
       d="m 255.19606,143.53375 q -1.35618,0.37476 -3.6459,0.84143 a 28.62096,28.62096 0 0 1 -5.60871,0.46735 q -2.71147,0 -4.53394,-0.79459 a 7.3586614,7.3586614 0 0 1 -2.94474,-2.24346 9.0840754,9.0840754 0 0 1 -1.61239,-3.50558 19.530614,19.530614 0 0 1 -0.49076,-4.53391 v -13.55476 h 3.03805 v 12.57323 a 21.46354,21.46354 0 0 0 0.37387,4.34698 q 0.37357,1.77679 1.21528,2.87451 a 4.7429028,4.7429028 0 0 0 2.1734,1.58919 9.4395999,9.4395999 0 0 0 3.24858,0.49074 25.984863,25.984863 0 0 0 3.73916,-0.23376 q 1.58866,-0.23339 2.00985,-0.42052 v -21.22037 h 3.03823 z"
       id="path234"
       style="fill:#1d1d1b;stroke-width:0.198161" />
    <rect
       class="cls-2"
       width="46.356312"
       height="71.392578"
       id="rect236"
       style="fill:#e9500e;stroke-width:0.198161"
       x="52.592754"
       y="79.339722" />
    <circle
       class="cls-3"
       cx="62.70322"
       cy="126.46216"
       r="4.8648214"
       id="circle238"
       style="fill:#ffffff;stroke-width:0.198161" />
    <circle
       class="cls-3"
       cx="82.963379"
       cy="115.79487"
       r="4.8648214"
       id="circle240"
       style="fill:#ffffff;stroke-width:0.198161" />
    <path
       class="cls-3"
       d="m 73.675073,138.98221 a 11.847816,11.847816 0 0 1 -8.079472,-6.16198 7.003087,7.003087 0 0 1 -4.159471,0.51127 15.837338,15.837338 0 0 0 11.402168,9.5561 16.028107,16.028107 0 0 0 3.454487,0.35549 6.9609221,6.9609221 0 0 1 -1.424396,-4.06735 c -0.400668,-0.0446 -0.800863,-0.10953 -1.193316,-0.19353 z"
       id="path242"
       style="fill:#ffffff;stroke-width:0.198161" />
    <circle
       class="cls-3"
       cx="81.867371"
       cy="139.00906"
       r="4.8648214"
       id="circle244"
       style="fill:#ffffff;stroke-width:0.198161" />
    <path
       class="cls-3"
       d="m 88.636994,137.22217 a 15.916109,15.916109 0 0 0 0.797584,-18.67446 7.0118339,7.0118339 0 0 1 -2.735664,3.2039 11.926719,11.926719 0 0 1 -0.389838,11.84617 6.97625,6.97625 0 0 1 2.327918,3.62439 z"
       id="path246"
       style="fill:#ffffff;stroke-width:0.198161" />
    <path
       class="cls-3"
       d="m 62.327867,119.48549 q 0.185196,-0.01 0.370587,-0.01 a 7.0208443,7.0208443 0 0 1 3.689317,1.05061 11.864852,11.864852 0 0 1 9.553575,-5.10945 7.0539592,7.0539592 0 0 1 1.47587,-3.94535 15.990788,15.990788 0 0 0 -15.089349,8.01425 z"
       id="path248"
       style="fill:#ffffff;stroke-width:0.198161" />
  </g>
</svg>
