<?xml version="1.0" encoding="UTF-8" standalone="no"?>
<!-- Created with Inkscape (http://www.inkscape.org/) -->

<svg
   width="194"
   height="168"
   viewBox="0 0 194 168"
   version="1.1"
   id="svg5"
   sodipodi:docname="cat_1.svg"
   inkscape:version="1.2.2 (b0a8486541, 2022-12-01, custom)"
   xmlns:inkscape="http://www.inkscape.org/namespaces/inkscape"
   xmlns:sodipodi="http://sodipodi.sourceforge.net/DTD/sodipodi-0.dtd"
   xmlns="http://www.w3.org/2000/svg"
   xmlns:svg="http://www.w3.org/2000/svg">
  <sodipodi:namedview
     id="namedview7"
     pagecolor="#ffffff"
     bordercolor="#666666"
     borderopacity="1.0"
     inkscape:showpageshadow="2"
     inkscape:pageopacity="0.0"
     inkscape:pagecheckerboard="0"
     inkscape:deskcolor="#d1d1d1"
     inkscape:document-units="px"
     showgrid="false"
     inkscape:zoom="3.7679096"
     inkscape:cx="-2.2558928"
     inkscape:cy="108.41555"
     inkscape:window-width="1848"
     inkscape:window-height="1016"
     inkscape:window-x="72"
     inkscape:window-y="27"
     inkscape:window-maximized="1"
     inkscape:current-layer="layer1" />
  <defs
     id="defs2" />
  <g
     inkscape:label="Layer 1"
     inkscape:groupmode="layer"
     id="layer1">
    <path
       style="fill:#ebecf0;fill-opacity:1;stroke:none;stroke-width:0.588849;stroke-linecap:butt;stroke-linejoin:miter;stroke-dasharray:none;stroke-opacity:1"
       d="M 3.1859951,84.261156 50.819124,1.7110153 h 95.349666 l 47.5807,82.4591537 -47.6659,82.606401 H 50.892849 Z"
       id="path434" />
    <path
       id="rect1835"
       style="fill:#e1f5fa;fill-opacity:1;stroke:#000000;stroke-width:0.8;stroke-linecap:square;stroke-dasharray:none;paint-order:stroke markers fill"
       d="m 92.000759,47.577462 h 50.679611 c 1.7493,0 3.15683,1.233065 3.15683,2.764698 v 47.539065 c 0,1.531662 -1.40753,2.764685 -3.15683,2.764685 H 79.774598"
       sodipodi:nodetypes="cssssc" />
    <path
       id="rect1835-3"
       style="fill:none;fill-opacity:1;stroke:#000000;stroke-width:0.8;stroke-linecap:square;stroke-dasharray:none;paint-order:stroke markers fill"
       d="m 92.135005,47.647916 h 50.679615 c 1.7493,0 3.15683,1.233065 3.15683,2.764698 v 47.539064 c 0,1.53166 -1.40753,2.764692 -3.15683,2.764692 H 79.908835"
       sodipodi:nodetypes="cssssc" />
    <path
       id="rect1835-9"
       style="fill:none;stroke:#000000;stroke-width:0.804956;stroke-linecap:square;stroke-dasharray:none;paint-order:stroke markers fill"
       d="m 93.007432,43.07067 h 52.473038 c 2.97486,0 5.36929,2.366479 5.36929,5.306051 v 56.308259 c 0,2.93966 -2.39443,5.30617 -5.36929,5.30617 H 79.255275"
       sodipodi:nodetypes="cssssc" />
    <path
       style="fill:none;stroke:#000000;stroke-width:0.8;stroke-linecap:butt;stroke-linejoin:miter;stroke-dasharray:none;stroke-opacity:1"
       d="M 89.555832,56.870911 H 78.079059 L 71.67135,53.16915"
       id="path4224"
       sodipodi:nodetypes="ccc" />
    <path
       style="fill:none;stroke:#000000;stroke-width:0.8;stroke-linecap:butt;stroke-linejoin:miter;stroke-dasharray:none;stroke-opacity:1"
       d="M 87.485957,68.086932 H 54.804563"
       id="path5678" />
    <path
       style="fill:none;stroke:#000000;stroke-width:0.8;stroke-linecap:butt;stroke-linejoin:miter;stroke-dasharray:none;stroke-opacity:1"
       d="m 64.517802,68.194735 -5.816675,5.819749"
       id="path5680" />
    <path
       style="fill:none;stroke:#000000;stroke-width:0.8;stroke-linecap:butt;stroke-linejoin:miter;stroke-dasharray:none;stroke-opacity:1"
       d="M 84.192322,84.65628 H 70.324831 l -2.748761,4.763618"
       id="path5682" />
    <path
       style="fill:none;stroke:#000000;stroke-width:0.8;stroke-linecap:butt;stroke-linejoin:miter;stroke-dasharray:none;stroke-opacity:1"
       d="M 80.53198,100.49213 H 41.515534"
       id="path5684"
       sodipodi:nodetypes="cc" />
    <path
       style="fill:none;stroke:#000000;stroke-width:0.8;stroke-linecap:butt;stroke-linejoin:miter;stroke-dasharray:none;stroke-opacity:1"
       d="M 60.274605,100.57487 52.352899,86.846257"
       id="path5686" />
    <ellipse
       style="fill:none;fill-opacity:1;stroke:#000000;stroke-width:0.810976;stroke-linecap:square;stroke-dasharray:none;paint-order:stroke markers fill"
       id="path5740"
       cx="70.189743"
       cy="51.811981"
       rx="2.0578451"
       ry="2.0590284" />
    <ellipse
       style="fill:none;fill-opacity:1;stroke:#000000;stroke-width:0.810976;stroke-linecap:square;stroke-dasharray:none;paint-order:stroke markers fill"
       id="path5740-1"
       cx="52.741871"
       cy="67.882401"
       rx="2.0578451"
       ry="2.0590284" />
    <ellipse
       style="fill:none;fill-opacity:1;stroke:#000000;stroke-width:0.810976;stroke-linecap:square;stroke-dasharray:none;paint-order:stroke markers fill"
       id="path5740-2"
       cx="57.3246"
       cy="75.504417"
       rx="2.0578451"
       ry="2.0590284" />
    <ellipse
       style="fill:none;fill-opacity:1;stroke:#000000;stroke-width:0.810976;stroke-linecap:square;stroke-dasharray:none;paint-order:stroke markers fill"
       id="path5740-7"
       cx="66.526566"
       cy="91.099792"
       rx="2.0578451"
       ry="2.0590284" />
    <ellipse
       style="fill:none;fill-opacity:1;stroke:#000000;stroke-width:0.810976;stroke-linecap:square;stroke-dasharray:none;paint-order:stroke markers fill"
       id="path5740-0"
       cx="51.237907"
       cy="85.17968"
       rx="2.0578451"
       ry="2.0590284" />
    <ellipse
       style="fill:none;fill-opacity:1;stroke:#000000;stroke-width:0.810976;stroke-linecap:square;stroke-dasharray:none;paint-order:stroke markers fill"
       id="path5740-9"
       cx="39.550407"
       cy="100.06758"
       rx="2.0578451"
       ry="2.0590284" />
    <path
       style="fill:none;stroke:#000000;stroke-width:0.8;stroke-linecap:butt;stroke-linejoin:miter;stroke-opacity:1;stroke-dasharray:none"
       d="m 117.93017,120.6516 -4.12514,-10.53405"
       id="path8002"
       sodipodi:nodetypes="cc" />
    <path
       id="rect8004"
       style="fill:none;fill-opacity:1;stroke:#000000;stroke-width:0.8;stroke-linecap:square;paint-order:stroke markers fill;stroke-dasharray:none"
       d="m 77.570585,120.71242 h 56.664995 c 1.19632,0 2.15955,0.96353 2.15955,2.16086 v 0.7443 c 0,1.19743 -0.96323,2.16145 -2.15955,2.16145 H 76.524196"
       sodipodi:nodetypes="cssssc" />
    <path
       id="rect3481"
       style="fill:#1b87a6;fill-opacity:1;stroke:#000000;stroke-width:0.882033;stroke-linecap:square;stroke-dasharray:none;stroke-opacity:1;paint-order:stroke markers fill"
       d="m 89.49628,33.070744 h 6.652068 L 81.419823,135.8729 h -6.652386 z"
       sodipodi:nodetypes="ccccc" />
    <path
       style="fill:none;fill-opacity:1;stroke:none;stroke-width:0.368902;stroke-linecap:round;stroke-miterlimit:4;stroke-dasharray:none;paint-order:stroke markers fill"
       d="m 83.925115,100.10345 c 0,-0.235873 2.134359,-11.982369 4.743021,-26.103332 2.608661,-14.12096 4.74302,-25.787016 4.74302,-25.924567 0,-0.156054 9.519304,-0.250093 25.316384,-0.250093 h 25.31638 l 0.77023,0.770234 0.77023,0.770234 v 24.74008 24.740078 l -0.80776,0.773926 -0.80776,0.77393 -30.02188,0.0692 c -27.584234,0.0636 -30.021865,0.0344 -30.021865,-0.35967 z"
       id="path19739" />
    <path
       style="fill:none;fill-opacity:1;stroke:none;stroke-width:0.368902;stroke-linecap:round;stroke-miterlimit:4;stroke-dasharray:none;paint-order:stroke markers fill"
       d="m 83.925115,100.10345 c 0,-0.235873 2.134359,-11.982369 4.743021,-26.103332 2.608661,-14.12096 4.74302,-25.787016 4.74302,-25.924567 0,-0.156054 9.519304,-0.250093 25.316384,-0.250093 h 25.31638 l 0.77023,0.770234 0.77023,0.770234 v 24.74008 24.740078 l -0.80776,0.773926 -0.80776,0.77393 -30.02188,0.0692 c -27.584234,0.0636 -30.021865,0.0344 -30.021865,-0.35967 z"
       id="path19741" />
  </g>
</svg>
