<?xml version="1.0" encoding="UTF-8" standalone="no"?>
<!-- Created with Inkscape (http://www.inkscape.org/) -->

<svg
   width="240"
   height="60"
   viewBox="0 0 63.5 15.874999"
   version="1.1"
   id="svg2431"
   sodipodi:docname="close_txt_un.svg"
   inkscape:version="1.2.2 (b0a8486541, 2022-12-01, custom)"
   xmlns:inkscape="http://www.inkscape.org/namespaces/inkscape"
   xmlns:sodipodi="http://sodipodi.sourceforge.net/DTD/sodipodi-0.dtd"
   xmlns="http://www.w3.org/2000/svg"
   xmlns:svg="http://www.w3.org/2000/svg">
  <sodipodi:namedview
     id="namedview2433"
     pagecolor="#ffffff"
     bordercolor="#666666"
     borderopacity="1.0"
     inkscape:showpageshadow="2"
     inkscape:pageopacity="0.0"
     inkscape:pagecheckerboard="0"
     inkscape:deskcolor="#d1d1d1"
     inkscape:document-units="px"
     showgrid="false"
     inkscape:zoom="2.5377507"
     inkscape:cx="107.57558"
     inkscape:cy="13.988766"
     inkscape:window-width="1848"
     inkscape:window-height="1016"
     inkscape:window-x="72"
     inkscape:window-y="27"
     inkscape:window-maximized="1"
     inkscape:current-layer="layer1" />
  <defs
     id="defs2428" />
  <g
     inkscape:label="Layer 1"
     inkscape:groupmode="layer"
     id="layer1">
    <g
       aria-label="(Закрити меню)"
       id="text7375"
       style="font-size:7.9375px;line-height:1.25;font-family:Uroob;-inkscape-font-specification:Uroob;stroke-width:0.264583"
       transform="translate(0,3.7041666)">
      <path
         d="m 0.76227335,7.0376802 q 0,-0.587375 0.23812505,-1.285875 0.2460625,-0.7064375 0.5159375,-1.143 0.269875,-0.4365625 0.3889375,-0.4365625 0.0635,0 0.111125,0.047625 0.047625,0.047625 0.047625,0.111125 0,0.087312 -0.127,0.3254375 -0.127,0.2301875 -0.28575,0.5159375 -0.1508125,0.2778125 -0.2778125,0.79375 -0.127,0.5159375 -0.127,1.095375 0,1.2144375 0.79375,2.6431875 0.023813,0.055562 0.023813,0.087312 0,0.0635 -0.055562,0.111125 -0.047625,0.047625 -0.111125,0.047625 -0.127,0 -0.396875,-0.4365625 -0.2619375,-0.428625 -0.5000625,-1.143 -0.23812505,-0.714375 -0.23812505,-1.3335 z"
         style="font-family:FreeMono;-inkscape-font-specification:FreeMono;fill:#ffffff"
         id="path7467" />
      <path
         d="m 5.4930112,6.4979302 q 0.5159375,0 0.85725,-0.2301875 0.34925,-0.238125 0.34925,-0.635 0,-0.3889375 -0.3254375,-0.650875 -0.3175,-0.2619375 -0.809625,-0.2619375 -0.460375,0 -0.7858125,0.238125 -0.3254375,0.238125 -0.34925,0.5953125 -0.015875,0.1905 -0.1666875,0.1905 -0.15875,0 -0.15875,-0.2143125 V 4.7119927 q 0,-0.2143125 0.15875,-0.2143125 0.1666875,0 0.1666875,0.2143125 v 0.1508125 q 0.47625,-0.4683125 1.158875,-0.4683125 0.6270625,0 1.0398125,0.3571875 0.4206875,0.34925 0.4206875,0.873125 0,0.3413125 -0.1984375,0.60325 -0.1905,0.2619375 -0.5000625,0.3730625 v 0.055563 q 0.4048125,0.1190625 0.635,0.4048125 0.238125,0.2778125 0.238125,0.7064375 0,0.5794375 -0.460375,0.9525 -0.460375,0.3730625 -1.17475,0.3730625 -0.841375,0 -1.3414375,-0.5715 v 0.2301875 q 0,0.2143125 -0.1666875,0.2143125 -0.15875,0 -0.15875,-0.2143125 v -0.889 q 0,-0.2143125 0.1666875,-0.2143125 0.1508125,0 0.15875,0.1905 0.015875,0.3889375 0.4048125,0.6588125 0.3889375,0.269875 0.9286875,0.269875 0.555625,0 0.92075,-0.28575 0.3730625,-0.2936875 0.3730625,-0.73025 0,-0.4206875 -0.34925,-0.6746875 -0.34925,-0.254 -0.9286875,-0.254 H 5.1120112 q -0.2143125,0 -0.2143125,-0.1666875 0,-0.15875 0.2143125,-0.15875 z"
         style="font-family:FreeMono;-inkscape-font-specification:FreeMono;fill:#ffffff"
         id="path7464" />
      <path
         d="m 8.9458116,5.9661177 q 0,-0.174625 0.53975,-0.2936875 0.5397504,-0.127 0.8413754,-0.127 0.555625,0 0.912812,0.2778125 0.365125,0.2778125 0.365125,0.6985 v 2.1193125 h 0.428625 q 0.214313,0 0.214313,0.15875 0,0.1666875 -0.214313,0.1666875 H 11.279437 V 8.4346802 q -0.706438,0.6588125 -1.5160629,0.6588125 -0.555625,0 -0.8969375,-0.2778125 -0.3413125,-0.28575 -0.3413125,-0.7381875 0,-0.5159375 0.460375,-0.8334375 0.4683125,-0.3254375 1.2144379,-0.3254375 0.468312,0 1.0795,0.1666875 V 6.5217427 q 0,-0.2936875 -0.269875,-0.4683125 -0.269875,-0.1825625 -0.706438,-0.1825625 -0.3651249,0 -0.7540624,0.127 -0.3889375,0.127 -0.4524375,0.127 -0.0635,0 -0.111125,-0.047625 -0.039687,-0.047625 -0.039687,-0.111125 z m 2.3336254,2.111375 v -0.714375 q -0.47625,-0.1190625 -1.016,-0.1190625 -0.6270629,0 -1.0239379,0.238125 -0.3889375,0.2301875 -0.3889375,0.60325 0,0.3095625 0.2460625,0.5000625 0.2460625,0.1825625 0.6588125,0.1825625 0.4206874,0 0.7699374,-0.15875 0.357188,-0.15875 0.754063,-0.5318125 z"
         style="font-family:FreeMono;-inkscape-font-specification:FreeMono;fill:#ffffff"
         id="path7461" />
      <path
         d="M 14.240112,8.9664927 H 13.48605 q -0.214313,0 -0.214313,-0.1666875 0,-0.15875 0.214313,-0.15875 h 0.428625 V 5.9819927 H 13.48605 q -0.214313,0 -0.214313,-0.1666875 0,-0.15875 0.214313,-0.15875 h 0.754062 v 1.4049375 l 1.373188,-1.0795 h -0.174625 q -0.214313,0 -0.214313,-0.1666875 0,-0.15875 0.214313,-0.15875 h 1.031875 q 0.214312,0 0.214312,0.15875 0,0.1666875 -0.214312,0.1666875 h -0.373063 l -1.611312,1.2620625 1.865312,1.397 h 0.357188 q 0.214312,0 0.214312,0.15875 0,0.1666875 -0.214312,0.1666875 h -1.039813 q -0.214312,0 -0.214312,-0.1666875 0,-0.15875 0.214312,-0.15875 h 0.22225 l -1.651,-1.190625 z"
         style="font-family:FreeMono;-inkscape-font-specification:FreeMono;fill:#ffffff"
         id="path7458" />
      <path
         d="m 18.6216,5.6565552 v 0.650875 q 0.3175,-0.41275 0.642937,-0.587375 0.325438,-0.174625 0.777875,-0.174625 0.738188,0 1.230313,0.4841875 0.500062,0.47625 0.500062,1.1826875 0,0.7064375 -0.500062,1.190625 -0.500063,0.4841875 -1.230313,0.4841875 -0.889,0 -1.420812,-0.762 V 10.11743 h 0.777875 q 0.214312,0 0.214312,0.15875 0,0.166688 -0.214312,0.166688 h -1.531938 q -0.214312,0 -0.214312,-0.166688 0,-0.15875 0.214312,-0.15875 h 0.428625 V 5.9819927 h -0.428625 q -0.214312,0 -0.214312,-0.1666875 0,-0.15875 0.214312,-0.15875 z m 1.412875,0.2143125 q -0.587375,0 -1.000125,0.396875 -0.41275,0.3889375 -0.41275,0.9445625 0,0.5635625 0.41275,0.9604375 0.41275,0.3889375 1.000125,0.3889375 0.587375,0 1.000125,-0.3889375 0.41275,-0.3889375 0.41275,-0.9445625 0,-0.5794375 -0.404813,-0.968375 -0.404812,-0.3889375 -1.008062,-0.3889375 z"
         style="font-family:FreeMono;-inkscape-font-specification:FreeMono;fill:#ffffff"
         id="path7455" />
      <path
         d="m 23.56665,5.9819927 v 1.8970625 l 2.111375,-1.49225 V 5.9819927 h -0.357188 q -0.214312,0 -0.214312,-0.1666875 0,-0.15875 0.214312,-0.15875 h 0.9525 q 0.214313,0 0.214313,0.15875 0,0.1666875 -0.214313,0.1666875 h -0.269875 v 2.6590625 h 0.269875 q 0.214313,0 0.214313,0.15875 0,0.1666875 -0.214313,0.1666875 h -0.9525 q -0.214312,0 -0.214312,-0.1666875 0,-0.15875 0.214312,-0.15875 h 0.357188 V 6.8074927 l -2.111375,1.49225 v 0.3413125 h 0.357187 q 0.214313,0 0.214313,0.15875 0,0.1666875 -0.214313,0.1666875 h -0.944562 q -0.22225,0 -0.22225,-0.1666875 0,-0.15875 0.22225,-0.15875 h 0.261937 V 5.9819927 h -0.269875 q -0.214312,0 -0.214312,-0.1666875 0,-0.15875 0.214312,-0.15875 h 0.9525 q 0.214313,0 0.214313,0.15875 0,0.1666875 -0.214313,0.1666875 z"
         style="font-family:FreeMono;-inkscape-font-specification:FreeMono;fill:#ffffff"
         id="path7452" />
      <path
         d="m 27.813202,5.6565552 h 3.14325 v 1.04775 q 0,0.2143125 -0.174625,0.2143125 -0.15875,0 -0.15875,-0.2143125 V 5.9819927 h -1.071563 v 2.667 h 0.357188 q 0.22225,0 0.22225,0.15875 0,0.1666875 -0.22225,0.1666875 h -1.04775 q -0.22225,0 -0.22225,-0.1666875 0,-0.15875 0.22225,-0.15875 h 0.365125 v -2.667 h -1.0795 v 0.7223125 q 0,0.2143125 -0.15875,0.2143125 -0.174625,0 -0.174625,-0.2143125 z"
         style="font-family:FreeMono;-inkscape-font-specification:FreeMono;fill:#ffffff"
         id="path7449" />
      <path
         d="M 33.091625,5.9819927 V 7.8790552 L 35.203,6.3868052 V 5.9819927 h -0.357188 q -0.214312,0 -0.214312,-0.1666875 0,-0.15875 0.214312,-0.15875 h 0.9525 q 0.214313,0 0.214313,0.15875 0,0.1666875 -0.214313,0.1666875 h -0.269875 v 2.6590625 h 0.269875 q 0.214313,0 0.214313,0.15875 0,0.1666875 -0.214313,0.1666875 h -0.9525 q -0.214312,0 -0.214312,-0.1666875 0,-0.15875 0.214312,-0.15875 H 35.203 V 6.8074927 l -2.111375,1.49225 v 0.3413125 h 0.357187 q 0.214313,0 0.214313,0.15875 0,0.1666875 -0.214313,0.1666875 H 32.50425 q -0.22225,0 -0.22225,-0.1666875 0,-0.15875 0.22225,-0.15875 h 0.261937 V 5.9819927 h -0.269875 q -0.214312,0 -0.214312,-0.1666875 0,-0.15875 0.214312,-0.15875 h 0.9525 q 0.214313,0 0.214313,0.15875 0,0.1666875 -0.214313,0.1666875 z"
         style="font-family:FreeMono;-inkscape-font-specification:FreeMono;fill:#ffffff"
         id="path7446" />
      <path
         d="m 44.585103,5.6565552 h 0.849313 q 0.214312,0 0.214312,0.15875 0,0.1666875 -0.214312,0.1666875 h -0.269875 v 2.6590625 h 0.269875 q 0.214312,0 0.214312,0.15875 0,0.1666875 -0.214312,0.1666875 h -0.865188 q -0.214312,0 -0.214312,-0.1666875 0,-0.15875 0.214312,-0.15875 h 0.269875 V 5.9819927 h -0.0635 L 43.783416,7.9584302 H 43.537353 L 42.537228,5.9819927 h -0.05556 v 2.6590625 h 0.3175 q 0.214312,0 0.214312,0.15875 0,0.1666875 -0.214312,0.1666875 h -0.873125 q -0.22225,0 -0.22225,-0.1666875 0,-0.15875 0.22225,-0.15875 H 42.15623 V 5.9819927 h -0.206375 q -0.214312,0 -0.214312,-0.1666875 0,-0.15875 0.214312,-0.15875 h 0.777875 l 0.944563,1.8811875 z"
         style="font-family:FreeMono;-inkscape-font-specification:FreeMono;fill:#ffffff"
         id="path7443" />
      <path
         d="m 50.181026,7.3869302 h -3.302 q 0.08731,0.6270625 0.523875,1.0080625 0.436563,0.3730625 1.0795,0.3730625 0.373063,0 0.762,-0.1190625 0.388938,-0.1190625 0.627063,-0.3095625 0.07937,-0.055563 0.127,-0.055563 0.0635,0 0.103187,0.047625 0.04763,0.047625 0.04763,0.111125 0,0.206375 -0.5715,0.428625 -0.563562,0.22225 -1.103312,0.22225 -0.801688,0 -1.36525,-0.53975 -0.555625,-0.53975 -0.555625,-1.3096875 0,-0.7223125 0.523875,-1.2065 0.523875,-0.492125 1.285875,-0.492125 0.801687,0 1.309687,0.508 0.508,0.5000625 0.508,1.3335 z m -3.302,-0.3254375 h 2.968625 q -0.09525,-0.53975 -0.500062,-0.8651875 -0.404813,-0.3254375 -0.98425,-0.3254375 -0.579438,0 -0.976313,0.3254375 -0.396875,0.3175 -0.508,0.8651875 z"
         style="font-family:FreeMono;-inkscape-font-specification:FreeMono;fill:#ffffff"
         id="path7440" />
      <path
         d="m 52.141578,5.9819927 v 1.1985625 h 2.111375 V 5.9819927 h -0.357187 q -0.214313,0 -0.214313,-0.1666875 0,-0.15875 0.214313,-0.15875 h 1.016 q 0.214312,0 0.214312,0.15875 0,0.1666875 -0.214312,0.1666875 h -0.333375 v 2.6590625 h 0.333375 q 0.214312,0 0.214312,0.15875 0,0.1666875 -0.214312,0.1666875 h -1.016 q -0.214313,0 -0.214313,-0.1666875 0,-0.15875 0.214313,-0.15875 h 0.357187 V 7.5059927 h -2.111375 v 1.1350625 h 0.357188 q 0.214312,0 0.214312,0.15875 0,0.1666875 -0.214312,0.1666875 h -0.944563 q -0.22225,0 -0.22225,-0.1666875 0,-0.15875 0.22225,-0.15875 h 0.261938 V 5.9819927 h -0.269875 q -0.214313,0 -0.214313,-0.1666875 0,-0.15875 0.214313,-0.15875 h 0.9525 q 0.214312,0 0.214312,0.15875 0,0.1666875 -0.214312,0.1666875 z"
         style="font-family:FreeMono;-inkscape-font-specification:FreeMono;fill:#ffffff"
         id="path7437" />
      <path
         d="m 56.967567,7.5059927 h -0.404812 v 1.1350625 h 0.206375 q 0.206375,0 0.206375,0.15875 0,0.1666875 -0.206375,0.1666875 h -0.889 q -0.22225,0 -0.22225,-0.1666875 0,-0.15875 0.22225,-0.15875 h 0.365125 V 5.9819927 H 55.97538 q -0.22225,0 -0.22225,-0.1666875 0,-0.15875 0.22225,-0.15875 h 0.79375 q 0.206375,0 0.206375,0.15875 0,0.1666875 -0.206375,0.1666875 h -0.206375 v 1.1985625 h 0.396875 q 0.05556,-0.7064375 0.500062,-1.1668125 0.4445,-0.4683125 1.150938,-0.4683125 0.746125,0 1.198562,0.5159375 0.452438,0.508 0.452438,1.2779375 0,0.746125 -0.460375,1.254125 -0.452438,0.5000625 -1.190625,0.5000625 -0.690563,0 -1.135063,-0.4445 -0.436562,-0.4445 -0.508,-1.143 z m 2.6035,-1.222375 q -0.357187,-0.41275 -0.960437,-0.41275 -0.60325,0 -0.968375,0.41275 -0.365125,0.41275 -0.365125,1.031875 0,0.6270625 0.365125,1.0398125 0.365125,0.41275 0.968375,0.41275 0.595312,0 0.9525,-0.41275 0.365125,-0.41275 0.365125,-1.016 0,-0.6429375 -0.357188,-1.0556875 z"
         style="font-family:FreeMono;-inkscape-font-specification:FreeMono;fill:#ffffff"
         id="path7434" />
      <path
         d="m 61.507803,9.7919927 q 0,-0.087312 0.127,-0.3254375 0.127,-0.2301875 0.277812,-0.508 0.15875,-0.28575 0.28575,-0.8016875 0.127,-0.5159375 0.127,-1.095375 0,-1.222375 -0.79375,-2.6431875 -0.02381,-0.0635 -0.02381,-0.087312 0,-0.0635 0.04762,-0.111125 0.05556,-0.047625 0.119062,-0.047625 0.127,0 0.388938,0.4365625 0.269875,0.428625 0.508,1.143 0.238125,0.714375 0.238125,1.3335 0,0.587375 -0.246063,1.2938125 -0.238125,0.6985 -0.508,1.1350625 -0.269875,0.4365625 -0.388937,0.4365625 -0.0635,0 -0.111125,-0.047625 -0.04762,-0.047625 -0.04762,-0.111125 z"
         style="font-family:FreeMono;-inkscape-font-specification:FreeMono;fill:#ffffff"
         id="path7431" />
    </g>
  </g>
</svg>
