<?xml version="1.0" encoding="UTF-8" standalone="no"?>
<svg
   width="177"
   height="174"
   viewBox="0 0 177 174"
   fill="none"
   version="1.1"
   id="svg150"
   sodipodi:docname="folder.svg"
   inkscape:version="1.2.2 (b0a8486541, 2022-12-01, custom)"
   xmlns:inkscape="http://www.inkscape.org/namespaces/inkscape"
   xmlns:sodipodi="http://sodipodi.sourceforge.net/DTD/sodipodi-0.dtd"
   xmlns="http://www.w3.org/2000/svg"
   xmlns:svg="http://www.w3.org/2000/svg">
  <defs
     id="defs154" />
  <sodipodi:namedview
     id="namedview152"
     pagecolor="#ffffff"
     bordercolor="#666666"
     borderopacity="1.0"
     inkscape:showpageshadow="2"
     inkscape:pageopacity="0.0"
     inkscape:pagecheckerboard="0"
     inkscape:deskcolor="#d1d1d1"
     showgrid="false"
     inkscape:zoom="3.1144367"
     inkscape:cx="55.22668"
     inkscape:cy="66.304124"
     inkscape:window-width="1848"
     inkscape:window-height="1016"
     inkscape:window-x="72"
     inkscape:window-y="27"
     inkscape:window-maximized="1"
     inkscape:current-layer="svg150" />
  <path
     fill-rule="evenodd"
     clip-rule="evenodd"
     d="M 0.418382,48.0368 V 27.6162 c 0,-7.18187 5.821958,-13.004275 13.003818,-13.004291 4.7464,-1.1e-5 9.8097,-2.26e-4 13.6982,-3.92e-4 2.4636,-1.04e-4 4.4556,-1.89e-4 5.5967,-1.89e-4 1.6698,0 4.0275,1.43e-4 7.1868,3.35e-4 6.4148,3.89e-4 16.1344,9.78e-4 30.1109,9.78e-4 6.4678,0 11.7206,5.300539 11.7266,11.768359 0.0034,3.7394 0.0157,7.1838 0.0288,8.5741 h 79.6068 c 8.284,0 15,6.7157 15,15 v 92.52655 c 0,8.285 -6.716,15 -15,15 H 15.2969 c -8.2843,0 -15.000025,-6.715 -15.000025,-15 V 49.9551 c 0,-0.6499 0.041331,-1.2902 0.121507,-1.9183 z"
     fill="#E2B100"
     id="path148"
     sodipodi:nodetypes="cssssssccsssssssc"
     style="fill-opacity:1" />
</svg>
