<svg width="170" height="133" viewBox="0 0 170 133" fill="none" xmlns="http://www.w3.org/2000/svg">
<g filter="url(#filter0_d_17_58)">
<path d="M140.515 52.8538C143.909 58.7324 143.909 65.9752 140.515 71.8538L115.485 115.208C112.091 121.086 105.818 124.708 99.0303 124.708L48.9697 124.708C42.1816 124.708 35.9092 121.086 32.5152 115.208L7.48483 71.8538C4.0908 65.9752 4.0908 58.7324 7.48483 52.8538L32.5152 9.5C35.9092 3.62138 42.1816 -4.53805e-06 48.9697 -4.24133e-06L99.0303 -2.05311e-06C105.818 -1.75639e-06 112.091 3.62138 115.485 9.5L140.515 52.8538Z" fill="#EEF7FF"/>
<path d="M138.35 54.1038C141.298 59.2089 141.298 65.4987 138.35 70.6038L113.32 113.958C110.372 119.063 104.925 122.208 99.0303 122.208L48.9697 122.208C43.0748 122.208 37.6277 119.063 34.6802 113.958L9.6499 70.6038C6.70245 65.4987 6.70245 59.2089 9.6499 54.1038L34.6802 10.75C37.6277 5.64488 43.0748 2.5 48.9697 2.5L99.0303 2.5C104.925 2.5 110.372 5.64488 113.32 10.75L138.35 54.1038Z" stroke="white" stroke-width="5"/>
</g>
<g filter="url(#filter1_d_17_58)">
<rect x="9" y="20" width="129" height="84" rx="10" fill="#EEEEEE"/>
</g>
<path d="M9 30C9 24.4772 13.4772 20 19 20H128C133.523 20 138 24.4772 138 30V32H9V30Z" fill="#888888"/>
<path d="M26 86L26 73.5C26 73.5 32.9041 62.0008 35.3699 62C37.8356 61.9992 47.6986 73.5 47.6986 73.5C47.6986 73.5 53.1233 67 54.6027 67C56.0822 67 62 73.5 62 73.5L62 86L26 86Z" fill="#6CCC76"/>
<circle cx="52" cy="60" r="4" fill="#EBD667"/>
<path d="M64.5 89.5H68.5V93.5H64.5V89.5Z" stroke="#4D65A5"/>
<path d="M19.5 89.5H23.5V93.5H19.5V89.5Z" stroke="#4D65A5"/>
<path d="M64.5 51.5H68.5V55.5H64.5V51.5Z" stroke="#4D65A5"/>
<path d="M19.5 51.5H23.5V55.5H19.5V51.5Z" stroke="#4D65A5"/>
<line x1="24" y1="91.5" x2="64" y2="91.5" stroke="#C8C8C8"/>
<line x1="24" y1="53.5" x2="64" y2="53.5" stroke="#C8C8C8"/>
<line x1="66.5" y1="89" x2="66.5" y2="56" stroke="#C8C8C8"/>
<line x1="21.5" y1="89" x2="21.5" y2="56" stroke="#C8C8C8"/>
<rect x="136.368" y="81" width="14.604" height="7.91048" transform="rotate(19.1271 136.368 81)" fill="#172030"/>
<rect x="133.776" y="88.4736" width="14.604" height="7.91048" transform="rotate(19.1271 133.776 88.4736)" fill="#252E40"/>
<rect x="131.184" y="95.9473" width="14.604" height="7.91048" transform="rotate(19.1271 131.184 95.9473)" fill="#455472"/>
<rect x="128.592" y="103.421" width="14.604" height="7.91048" transform="rotate(19.1271 128.592 103.421)" fill="#BDBDBD"/>
<circle cx="18.5" cy="26.5" r="2.5" fill="#D9D9D9"/>
<circle cx="34.5" cy="26.5" r="2.5" fill="#D9D9D9"/>
<circle cx="26.5" cy="26.5" r="2.5" fill="#D9D9D9"/>
<rect x="77" y="42" width="24" height="6" fill="#D9D9D9"/>
<rect x="77" y="52" width="37" height="3" fill="#D9D9D9"/>
<rect x="77" y="59" width="37" height="3" fill="#D9D9D9"/>
<rect x="77" y="66" width="37" height="3" fill="#D9D9D9"/>
<path d="M131 75.3189C113.8 72.9189 106.5 84.6523 105 90.8189" stroke="#172030"/>
<path d="M78 110.501C95.2 112.901 102 100.667 103.5 94.5" stroke="#172030"/>
<path d="M102.5 90.5H106.5V94.5H102.5V90.5Z" stroke="#4D65A5"/>
<path d="M125.199 61.8779L169.199 54.8779L127.034 66.1654L125.199 61.8779Z" fill="#77B2D3"/>
<path d="M125.199 54.8782L116.199 63.3779L169.199 54.8782L125.199 54.8782Z" fill="#B6E5FF"/>
<path d="M122.034 47.1645L127.699 54.8783L169.199 54.8783L122.034 47.1645Z" fill="#ADD8F0"/>
<path d="M131 38.3846V55H155L154.246 37L131 38.3846Z" fill="url(#paint0_linear_17_58)"/>
<path d="M135.378 50.0568C135.203 50.0568 135.052 49.9941 134.927 49.8686C134.801 49.7431 134.739 49.5928 134.739 49.4176C134.739 49.2424 134.801 49.0921 134.927 48.9666C135.052 48.8411 135.203 48.7784 135.378 48.7784C135.553 48.7784 135.703 48.8411 135.829 48.9666C135.954 49.0921 136.017 49.2424 136.017 49.4176C136.017 49.5336 135.987 49.6402 135.928 49.7372C135.871 49.8343 135.795 49.9124 135.697 49.9716C135.603 50.0284 135.496 50.0568 135.378 50.0568ZM137.521 44.5455H138.359V50.3977C138.359 50.7339 138.301 51.0251 138.185 51.2713C138.071 51.5175 137.899 51.7081 137.667 51.843C137.437 51.978 137.147 52.0455 136.797 52.0455C136.768 52.0455 136.74 52.0455 136.711 52.0455C136.683 52.0455 136.654 52.0455 136.626 52.0455V51.2642C136.654 51.2642 136.681 51.2642 136.704 51.2642C136.728 51.2642 136.754 51.2642 136.782 51.2642C137.038 51.2642 137.225 51.1884 137.343 51.0369C137.462 50.8878 137.521 50.6747 137.521 50.3977V44.5455ZM137.933 43.6364C137.77 43.6364 137.629 43.5807 137.51 43.4695C137.394 43.3582 137.336 43.2244 137.336 43.0682C137.336 42.9119 137.394 42.7782 137.51 42.6669C137.629 42.5556 137.77 42.5 137.933 42.5C138.096 42.5 138.236 42.5556 138.352 42.6669C138.47 42.7782 138.529 42.9119 138.529 43.0682C138.529 43.2244 138.47 43.3582 138.352 43.4695C138.236 43.5807 138.096 43.6364 137.933 43.6364ZM139.894 52.0455V44.5455H140.704V45.4119H140.803C140.865 45.3172 140.95 45.1965 141.059 45.0497C141.17 44.9006 141.329 44.768 141.535 44.652C141.743 44.5336 142.025 44.4744 142.38 44.4744C142.839 44.4744 143.244 44.5893 143.594 44.8189C143.945 45.0485 144.218 45.3741 144.415 45.7955C144.611 46.2169 144.709 46.714 144.709 47.2869C144.709 47.8646 144.611 48.3653 144.415 48.7891C144.218 49.2105 143.946 49.5372 143.598 49.7692C143.25 49.9988 142.849 50.1136 142.394 50.1136C142.044 50.1136 141.763 50.0556 141.552 49.9396C141.342 49.8213 141.18 49.6875 141.066 49.5384C140.952 49.3868 140.865 49.2614 140.803 49.1619H140.732V52.0455H139.894ZM140.718 47.2727C140.718 47.6847 140.778 48.0481 140.899 48.3629C141.02 48.6754 141.196 48.9205 141.428 49.098C141.66 49.2732 141.944 49.3608 142.28 49.3608C142.631 49.3608 142.923 49.2685 143.157 49.0838C143.394 48.8968 143.572 48.6458 143.69 48.331C143.811 48.0137 143.871 47.661 143.871 47.2727C143.871 46.8892 143.812 46.5436 143.694 46.2358C143.578 45.9257 143.401 45.6806 143.165 45.5007C142.93 45.3184 142.635 45.2273 142.28 45.2273C141.939 45.2273 141.653 45.3137 141.421 45.4865C141.189 45.657 141.014 45.8961 140.895 46.2038C140.777 46.5092 140.718 46.8655 140.718 47.2727ZM148.189 52.1591C147.785 52.1591 147.437 52.107 147.145 52.0028C146.854 51.901 146.612 51.7661 146.417 51.598C146.226 51.4323 146.073 51.2547 145.959 51.0653L146.627 50.5966C146.703 50.696 146.799 50.8097 146.915 50.9375C147.031 51.0677 147.189 51.1802 147.39 51.2749C147.594 51.3719 147.86 51.4205 148.189 51.4205C148.63 51.4205 148.993 51.3139 149.28 51.1009C149.566 50.8878 149.709 50.554 149.709 50.0994V48.9915H149.638C149.577 49.0909 149.489 49.214 149.376 49.3608C149.264 49.5052 149.103 49.6342 148.893 49.7479C148.684 49.8591 148.403 49.9148 148.047 49.9148C147.607 49.9148 147.212 49.8106 146.861 49.6023C146.513 49.3939 146.238 49.0909 146.034 48.6932C145.833 48.2955 145.732 47.8125 145.732 47.2443C145.732 46.6856 145.83 46.1991 146.027 45.7848C146.223 45.3681 146.497 45.0462 146.847 44.8189C147.198 44.5893 147.602 44.4744 148.062 44.4744C148.417 44.4744 148.698 44.5336 148.907 44.652C149.117 44.768 149.278 44.9006 149.39 45.0497C149.503 45.1965 149.591 45.3172 149.653 45.4119H149.738V44.5455H150.547V50.1562C150.547 50.625 150.441 51.0062 150.228 51.2997C150.017 51.5956 149.733 51.8123 149.376 51.9496C149.02 52.0893 148.625 52.1591 148.189 52.1591ZM148.161 49.1619C148.497 49.1619 148.781 49.085 149.013 48.9311C149.245 48.7772 149.422 48.5559 149.542 48.267C149.663 47.9782 149.724 47.6326 149.724 47.2301C149.724 46.8371 149.664 46.4903 149.546 46.1896C149.428 45.889 149.252 45.6534 149.02 45.483C148.788 45.3125 148.502 45.2273 148.161 45.2273C147.806 45.2273 147.51 45.3172 147.273 45.4972C147.039 45.6771 146.863 45.9186 146.744 46.2216C146.628 46.5246 146.57 46.8608 146.57 47.2301C146.57 47.6089 146.629 47.9439 146.748 48.2351C146.868 48.5239 147.046 48.7512 147.28 48.9169C147.517 49.0803 147.811 49.1619 148.161 49.1619Z" fill="#E3FCFF"/>
<line x1="73.3462" y1="94.8682" x2="96.2424" y2="94.8682" stroke="#9C9C9C"/>
<path d="M75.7148 93.0001L73.3464 94.9719L75.7152 96.9462" stroke="#9C9C9C"/>
<path d="M93.7237 93.0001L96.0921 94.9719L93.7233 96.9462" stroke="#9C9C9C"/>
<path d="M77.6506 89H76.358L80.0966 78.8182H81.3693L85.108 89H83.8153L80.7727 80.429H80.6932L77.6506 89ZM78.1278 85.0227H83.3381V86.1165H78.1278V85.0227ZM86.6939 89V78.8182H87.8672V82.5767H87.9666C88.0528 82.4441 88.1721 82.2751 88.3246 82.0696C88.4804 81.8608 88.7024 81.6752 88.9908 81.5128C89.2824 81.3471 89.6768 81.2642 90.174 81.2642C90.817 81.2642 91.3838 81.425 91.8743 81.7464C92.3648 82.0679 92.7476 82.5237 93.0227 83.1136C93.2978 83.7036 93.4354 84.3996 93.4354 85.2017C93.4354 86.0104 93.2978 86.7114 93.0227 87.3047C92.7476 87.8946 92.3665 88.352 91.8793 88.6768C91.392 88.9983 90.8303 89.1591 90.1939 89.1591C89.7034 89.1591 89.3106 89.0779 89.0156 88.9155C88.7206 88.7498 88.4936 88.5625 88.3345 88.3537C88.1754 88.1416 88.0528 87.9659 87.9666 87.8267H87.8274V89H86.6939ZM87.8473 85.1818C87.8473 85.7585 87.9318 86.2673 88.1009 86.7081C88.2699 87.1456 88.5168 87.4886 88.8416 87.7372C89.1664 87.9825 89.5642 88.1051 90.0348 88.1051C90.5253 88.1051 90.9347 87.9759 91.2628 87.7173C91.5942 87.4555 91.8428 87.1042 92.0085 86.6634C92.1776 86.2192 92.2621 85.7254 92.2621 85.1818C92.2621 84.6449 92.1792 84.161 92.0135 83.7301C91.8511 83.2959 91.6042 82.9529 91.2727 82.701C90.9446 82.4458 90.532 82.3182 90.0348 82.3182C89.5575 82.3182 89.1565 82.4392 88.8317 82.6811C88.5069 82.9197 88.2616 83.2545 88.0959 83.6854C87.9302 84.1129 87.8473 84.6117 87.8473 85.1818Z" fill="#9C9C9C"/>
<defs>
<filter id="filter0_d_17_58" x="0.939301" y="0" width="146.121" height="132.708" filterUnits="userSpaceOnUse" color-interpolation-filters="sRGB">
<feFlood flood-opacity="0" result="BackgroundImageFix"/>
<feColorMatrix in="SourceAlpha" type="matrix" values="0 0 0 0 0 0 0 0 0 0 0 0 0 0 0 0 0 0 127 0" result="hardAlpha"/>
<feOffset dy="4"/>
<feGaussianBlur stdDeviation="2"/>
<feComposite in2="hardAlpha" operator="out"/>
<feColorMatrix type="matrix" values="0 0 0 0 0 0 0 0 0 0 0 0 0 0 0 0 0 0 0.25 0"/>
<feBlend mode="normal" in2="BackgroundImageFix" result="effect1_dropShadow_17_58"/>
<feBlend mode="normal" in="SourceGraphic" in2="effect1_dropShadow_17_58" result="shape"/>
</filter>
<filter id="filter1_d_17_58" x="7" y="20" width="133" height="88" filterUnits="userSpaceOnUse" color-interpolation-filters="sRGB">
<feFlood flood-opacity="0" result="BackgroundImageFix"/>
<feColorMatrix in="SourceAlpha" type="matrix" values="0 0 0 0 0 0 0 0 0 0 0 0 0 0 0 0 0 0 127 0" result="hardAlpha"/>
<feOffset dy="2"/>
<feGaussianBlur stdDeviation="1"/>
<feComposite in2="hardAlpha" operator="out"/>
<feColorMatrix type="matrix" values="0 0 0 0 0 0 0 0 0 0 0 0 0 0 0 0 0 0 0.25 0"/>
<feBlend mode="normal" in2="BackgroundImageFix" result="effect1_dropShadow_17_58"/>
<feBlend mode="normal" in="SourceGraphic" in2="effect1_dropShadow_17_58" result="shape"/>
</filter>
<linearGradient id="paint0_linear_17_58" x1="143" y1="52" x2="143" y2="55" gradientUnits="userSpaceOnUse">
<stop stop-color="#3DB2C2"/>
<stop offset="1" stop-color="#4A9EA9"/>
</linearGradient>
</defs>
</svg>
