<svg width="194" height="132" viewBox="0 0 194 132" fill="none" xmlns="http://www.w3.org/2000/svg">
<path d="M104.165 96.5345L110.084 86.3113C112.598 81.969 117.244 79.2941 122.273 79.2941H134.111C139.14 79.2941 143.786 81.969 146.3 86.3113L152.219 96.5345C154.734 100.877 154.734 106.227 152.219 110.569L146.3 120.792C143.786 125.134 139.14 127.809 134.111 127.809H122.273C117.244 127.809 112.598 125.134 110.084 120.792L104.165 110.569C101.651 106.227 101.651 100.877 104.165 96.5345Z" fill="#DFF0FA" stroke="#84BAD9"/>
<path d="M87.0984 44.7586C84.5163 40.299 84.5163 34.8044 87.0984 30.3448L97.582 12.2378C100.164 7.7782 104.937 5.03098 110.101 5.03098H131.068C136.232 5.03098 141.005 7.7782 143.587 12.2378L154.07 30.3448C156.652 34.8044 156.652 40.299 154.07 44.7586L143.587 62.8656C141.005 67.3252 136.232 70.0725 131.068 70.0725H110.101C104.937 70.0725 100.164 67.3252 97.582 62.8656L87.0984 44.7586Z" fill="#CAEFFB"/>
<path d="M103.836 110.759C101.254 106.299 101.254 100.805 103.836 96.3449L109.755 86.1217C112.337 81.6618 117.109 78.9148 122.273 78.9148H134.111C139.275 78.9148 144.048 81.6618 146.63 86.1217L152.549 96.3449C155.131 100.805 155.131 106.299 152.549 110.759L146.63 120.982C144.048 125.442 139.275 128.189 134.111 128.189H122.273C117.109 128.189 112.337 125.442 109.755 120.982L103.836 110.759Z" fill="#DFF0FA"/>
<path d="M122.855 80.4138C120.273 75.9539 120.273 70.4596 122.855 66L133.339 47.893C135.921 43.4334 140.693 40.6861 145.858 40.6861H166.825C171.989 40.6861 176.761 43.4334 179.343 47.893L189.827 66C192.409 70.4596 192.409 75.9539 189.827 80.4138L179.343 98.5205C176.761 102.98 171.989 105.727 166.825 105.727H145.858C140.693 105.727 135.921 102.98 133.339 98.5205L122.855 80.4138Z" fill="#B7DCFE"/>
<path d="M42.9727 101.655C40.3906 97.1952 40.3906 91.7013 42.9727 87.2413L53.4566 69.1344C56.0387 64.6747 60.8107 61.9275 65.975 61.9275H86.9424C92.1066 61.9275 96.879 64.6747 99.4611 69.1344L109.945 87.2413C112.527 91.7013 112.527 97.1952 109.945 101.655L99.4611 119.762C96.879 124.222 92.1066 126.969 86.9424 126.969H65.975C60.8107 126.969 56.0387 124.222 53.4566 119.762L42.9727 101.655Z" fill="#CAEFFB"/>
<path d="M90.1643 23.5172C92.7465 27.9769 92.7465 33.4714 90.1643 37.931L84.2454 48.1542C81.6633 52.6138 76.8909 55.3611 71.727 55.3611H59.8887C54.7244 55.361 49.9525 52.6138 47.3704 48.1541L41.4512 37.931C38.8691 33.4714 38.8691 27.9769 41.4512 23.5172L47.3704 13.2941C49.9525 8.83445 54.7244 6.08722 59.8887 6.08722H71.727C76.8909 6.08722 81.6633 8.83445 84.2454 13.2941L90.1643 23.5172Z" fill="#DFF0FA"/>
<path d="M71.1449 53.8621C73.727 58.3217 73.727 63.8162 71.1449 68.2758L60.661 86.3826C58.0789 90.8425 53.3069 93.5895 48.1427 93.5895H27.175C22.0107 93.5895 17.2388 90.8425 14.6567 86.3826L4.1728 68.2758C1.59068 63.8162 1.59068 58.3217 4.1728 53.8621L14.6567 35.7551C17.2388 31.2955 22.0107 28.5482 27.175 28.5482H48.1427C53.3069 28.5482 58.0789 31.2955 60.661 35.7551L71.1449 53.8621Z" fill="#B7DCFE"/>
<path d="M147.859 72.2586L128.816 105.148C126.573 109.021 122.429 111.406 117.944 111.406H79.8596C75.3746 111.406 71.2305 109.021 68.9881 105.148L49.9454 72.2586C47.7031 68.3858 47.7031 63.6142 49.9454 59.7413L68.9881 26.8523C71.2305 22.9794 75.3746 20.5937 79.8596 20.5937H117.944C122.429 20.5937 126.573 22.9794 128.816 26.8523L147.859 59.7413C150.101 63.6142 150.101 68.3858 147.859 72.2586Z" fill="#EEF7FF" stroke="white" stroke-width="5"/>
<path d="M127 44.5H74C71.5147 44.5 69.5 46.5147 69.5 49V72C69.5 74.4853 71.5147 76.5 74 76.5H127C129.485 76.5 131.5 74.4853 131.5 72V49C131.5 46.5147 129.485 44.5 127 44.5Z" fill="#96EAFF" stroke="black"/>
<path d="M127 44.5H74C71.5147 44.5 69.5 46.5147 69.5 49V79C69.5 81.4853 71.5147 83.5 74 83.5H127C129.485 83.5 131.5 81.4853 131.5 79V49C131.5 46.5147 129.485 44.5 127 44.5Z" stroke="black"/>
<path d="M93.5149 87.8787L94.5149 83.8787" stroke="black"/>
<path d="M108.485 87.8787L107.485 83.8787" stroke="black"/>
<path d="M114.5 35.5H87.5V69.5H114.5V35.5Z" fill="white" stroke="black"/>
<path d="M92.2102 45.9318V45.25L97.6989 42.4545V43.5455L93.4886 45.5739L93.5227 45.5057V45.6761L93.4886 45.608L97.6989 47.6364V48.7273L92.2102 45.9318ZM102.916 39.8636L100.103 50.3125H99.1829L101.995 39.8636H102.916ZM109.886 45.9318L104.398 48.7273V47.6364L108.608 45.608L108.574 45.6761V45.5057L108.608 45.5739L104.398 43.5455V42.4545L109.886 45.25V45.9318Z" fill="black"/>
<path d="M92 62.5H110" stroke="black"/>
<path d="M92 54.5H110" stroke="black"/>
<path d="M92 58.5H110" stroke="black"/>
<path d="M77.5 92V90C77.5 90 87.6116 86.8515 94 88C96.6139 88.4699 101 90 101 90" stroke="black"/>
<path d="M124.5 92.2521V90.2521C124.5 90.2521 113.888 87.1036 107.5 88.2521C104.886 88.722 101 90 101 90" stroke="black"/>
<path d="M126.5 96V94C126.5 93.1716 125.828 92.5 125 92.5H106.618C106.05 92.5 105.53 92.821 105.276 93.3292L104.829 94.2236C104.744 94.393 104.571 94.5 104.382 94.5H97.618C97.4286 94.5 97.2555 94.393 97.1708 94.2236L96.7236 93.3292C96.4695 92.821 95.9501 92.5 95.382 92.5H77C76.1716 92.5 75.5 93.1716 75.5 94V96C75.5 96.8284 76.1716 97.5 77 97.5H125C125.828 97.5 126.5 96.8284 126.5 96Z" fill="#89BFFF" stroke="black"/>
<path d="M101 90V94.5" stroke="black"/>
<path d="M72.2997 82.3188C70.8471 81.599 70.3054 80.3953 70.3054 77.8875V75.7848L71.3511 76.4224C72.3724 77.0451 73.0511 77.06 100.395 77.0612C128.061 77.0624 128.408 77.0545 129.631 76.3989L130.869 75.7353L130.746 78.1686C130.633 80.4089 130.541 80.6849 129.578 81.6476L128.532 82.6933L100.947 82.7693C75.9571 82.8381 73.2622 82.7957 72.2997 82.3188Z" fill="#E6E6E6"/>
<path d="M97.6819 88.295C96.0154 87.7799 94.5971 87.3038 94.5302 87.2369C94.4634 87.1701 94.5772 86.4462 94.7831 85.6283L95.1576 84.1412H101.017H106.876L107.258 85.7982C107.469 86.7095 107.602 87.4805 107.555 87.5114C107.458 87.5747 102.347 88.8781 101.356 89.0924C101.002 89.1688 99.3485 88.81 97.6819 88.295Z" fill="#E6E6E6"/>
</svg>
