<svg width="48" height="44" viewBox="0 0 48 44" fill="none" xmlns="http://www.w3.org/2000/svg">
<path d="M12.2259 37.8069C7.76849 35.0121 5.07109 30.7554 4.32955 25.346C4.17583 24.2246 4.13873 23.6664 4.13793 22.4635C4.13702 21.1284 4.20172 20.385 4.42121 19.2074C5.34531 14.2491 8.27505 9.97289 12.6825 7.14929C15.799 5.15272 19.4374 4.13794 23.4805 4.1377C28.9293 4.13736 33.7489 5.91685 37.0907 9.16289C37.3666 9.4309 37.7084 9.79231 37.8504 9.96603C38.0691 10.2337 38.099 10.2911 38.0467 10.3426C38.0127 10.376 37.504 10.8466 36.9162 11.3883C31.9429 15.9712 28.103 19.9258 26.5718 22.0416C25.2753 23.8331 24.4543 25.8749 24.1977 27.9459C24.0888 28.8245 24.1319 30.3074 24.29 31.1195C24.3177 31.2621 24.3116 31.2705 24.1506 31.3118C24.0579 31.3356 23.7368 31.3908 23.4369 31.4346C21.7767 31.6766 20.4899 32.2951 19.6635 33.2482C19.0542 33.9509 18.6915 34.7566 18.3324 36.2045C18.2368 36.5902 18.1585 36.9154 18.1585 36.9272C18.1585 36.9818 17.2722 37.2544 16.8717 37.3229C16.7517 37.3434 15.7997 37.5201 14.756 37.7155C13.7123 37.9108 12.8094 38.0698 12.7494 38.0687C12.6894 38.0677 12.4538 37.9499 12.2259 37.8069ZM14.1576 30.6149C14.5999 30.4555 14.9061 30.2539 15.2219 29.9145C15.5515 29.56 15.7545 29.2304 15.9013 28.8112C15.9851 28.5719 15.9987 28.4416 15.9987 27.877C15.9987 27.3123 15.9851 27.182 15.9013 26.9427C15.6095 26.1094 14.9087 25.3846 14.1523 25.1336C13.834 25.0279 13.1256 25.0073 12.7406 25.0925C12.0644 25.2421 11.2934 25.9019 10.9933 26.588C10.791 27.0505 10.7258 27.3648 10.7258 27.877C10.7258 28.7098 10.9552 29.3037 11.5047 29.8934C12.0646 30.4941 12.5511 30.7042 13.3942 30.7095C13.7828 30.712 13.9434 30.692 14.1576 30.6149ZM16.2789 19.1572C16.789 19.0281 17.0956 18.8345 17.5305 18.3672C17.8258 18.0499 17.9625 17.8614 18.0638 17.6317C18.5286 16.5775 18.3967 15.4344 17.7069 14.5372C17.2292 13.916 16.5463 13.5562 15.7785 13.5213C14.8164 13.4776 13.9959 13.9281 13.455 14.797C13.172 15.2516 13.0529 15.6303 13.0231 16.17C12.969 17.1529 13.2832 17.9262 14.004 18.5839C14.1302 18.6991 14.3303 18.8499 14.4485 18.919C14.9348 19.2034 15.7023 19.3033 16.2789 19.1572ZM27.0751 15.0123C27.5314 14.8869 27.866 14.6856 28.1926 14.3398C28.5193 13.9939 28.7151 13.6885 28.8738 13.277C28.9729 13.02 28.9944 12.884 29.0109 12.4083C29.0426 11.494 28.8534 10.9202 28.318 10.3064C27.986 9.9257 27.6841 9.71413 27.2248 9.54015C26.9503 9.43617 26.8305 9.41874 26.3814 9.41741C25.9269 9.41609 25.8164 9.4318 25.5426 9.53687C25.1275 9.69617 24.8911 9.84929 24.5753 10.1634C24.2375 10.4995 24.0175 10.8609 23.8657 11.3292C23.7605 11.6539 23.7433 11.7793 23.7428 12.2243C23.7418 13.1358 23.9267 13.6179 24.5257 14.2655C24.9213 14.6932 25.2371 14.898 25.7052 15.0307C26.0592 15.131 26.673 15.1228 27.0751 15.0123Z" fill="white"/>
<path d="M31.4564 40.4632C31.4717 40.4262 31.5696 40.1941 31.6738 39.9473C31.9027 39.4057 32.0758 38.8226 32.1816 38.2365C32.268 37.7575 32.2962 36.4924 32.2339 35.884L32.1971 35.5245L32.5407 35.4919C33.2876 35.421 34.4098 35.1203 34.9434 34.8481L35.1185 34.7588L35.146 34.8877C35.2633 35.4374 35.4082 36.3841 35.4077 36.5974C35.4041 38.0854 34.0917 39.4998 31.9436 40.3307C31.7342 40.4117 31.5327 40.4897 31.4957 40.5041C31.451 40.5216 31.4379 40.5079 31.4564 40.4632Z" fill="white"/>
<path d="M23.0243 40.7389C22.0166 40.6955 20.7422 40.5098 20.0279 40.3174C19.0598 40.0566 18.3387 39.8214 18.3829 39.7808C18.4052 39.7603 18.5934 39.7067 18.801 39.6617C19.3385 39.5454 20.0883 39.2929 20.4877 39.0937C21.1848 38.7461 21.4211 38.3697 21.7753 37.0425C22.2134 35.4004 22.5101 34.8907 23.2866 34.4458C23.9152 34.0856 25.1601 33.8009 26.3038 33.7556L26.9645 33.7295L27.8007 34.3125L28.6369 34.8955L28.691 35.1314C28.7752 35.4984 28.801 36.6038 28.7358 37.0497C28.574 38.1564 28.0478 39.1604 27.2187 39.9445C26.8479 40.2953 26.4652 40.4571 26.034 40.5774C25.0663 40.8474 24.028 40.7822 23.0243 40.7389Z" fill="white"/>
<path d="M30.4614 32.2742C30.3615 32.2356 29.8512 31.8862 29.3274 31.4979L28.3751 30.7918L28.2979 30.354C28.1756 29.6599 28.1522 29.1599 28.2121 28.5175C28.4114 26.3778 29.3193 24.5092 31.1697 22.4302C31.8399 21.6771 34.1886 19.3408 35.4251 18.1972C37.5104 16.2686 39.4506 14.5491 42.0097 12.3619C44.3076 10.398 44.7532 10.0284 44.865 9.99381C44.9457 9.96881 45.0723 10.0687 45.4878 10.4857L46.0092 11.0089L45.6165 11.8249C44.8055 13.5101 42.5578 18.0086 41.7311 19.6011C39.1401 24.5919 37.271 27.7848 36.0253 29.3484C35.6038 29.8773 34.73 30.7314 34.2078 31.1247C33.6311 31.5591 32.6796 32.0418 32.0952 32.1963C31.5815 32.3321 30.7177 32.3733 30.4614 32.2742Z" fill="white"/>
</svg>
