<svg width="194" height="132" viewBox="0 0 194 132" fill="none" xmlns="http://www.w3.org/2000/svg">
<path d="M104.165 96.5345L110.084 86.3113C112.598 81.969 117.244 79.2941 122.273 79.2941H134.111C139.14 79.2941 143.786 81.969 146.3 86.3113L152.219 96.5345C154.734 100.877 154.734 106.227 152.219 110.569L146.3 120.792C143.786 125.134 139.14 127.809 134.111 127.809H122.273C117.244 127.809 112.598 125.134 110.084 120.792L104.165 110.569C101.651 106.227 101.651 100.877 104.165 96.5345Z" fill="#DFF0FA" stroke="#84BAD9"/>
<path d="M87.0984 44.7586C84.5163 40.299 84.5163 34.8045 87.0984 30.3448L97.582 12.2378C100.164 7.77821 104.936 5.03098 110.101 5.03098H131.068C136.232 5.03098 141.005 7.77821 143.587 12.2378L154.07 30.3448C156.652 34.8045 156.652 40.299 154.07 44.7586L143.587 62.8656C141.005 67.3252 136.232 70.0725 131.068 70.0725H110.101C104.936 70.0725 100.164 67.3252 97.582 62.8656L87.0984 44.7586Z" fill="#CAEFFB"/>
<path d="M103.836 110.759C101.254 106.299 101.254 100.805 103.836 96.3448L109.755 86.1217C112.337 81.6617 117.109 78.9148 122.273 78.9148H134.111C139.275 78.9148 144.048 81.6617 146.63 86.1217L152.549 96.3448C155.131 100.805 155.131 106.299 152.549 110.759L146.63 120.982C144.048 125.442 139.275 128.189 134.111 128.189H122.273C117.109 128.189 112.337 125.442 109.755 120.982L103.836 110.759Z" fill="#DFF0FA"/>
<path d="M122.855 80.4138C120.273 75.9539 120.273 70.4596 122.855 66L133.339 47.893C135.921 43.4334 140.693 40.6861 145.858 40.6861H166.825C171.989 40.6861 176.761 43.4334 179.343 47.893L189.827 66C192.409 70.4596 192.409 75.9539 189.827 80.4138L179.343 98.5206C176.761 102.98 171.989 105.727 166.825 105.727H145.858C140.693 105.727 135.921 102.98 133.339 98.5206L122.855 80.4138Z" fill="#B7DCFE"/>
<path d="M42.9727 101.655C40.3906 97.1952 40.3906 91.7013 42.9727 87.2414L53.4567 69.1344C56.0388 64.6748 60.8107 61.9275 65.975 61.9275H86.9424C92.1066 61.9275 96.879 64.6748 99.4611 69.1344L109.945 87.2414C112.527 91.7013 112.527 97.1952 109.945 101.655L99.4611 119.762C96.879 124.222 92.1066 126.969 86.9424 126.969H65.975C60.8107 126.969 56.0388 124.222 53.4567 119.762L42.9727 101.655Z" fill="#CAEFFB"/>
<path d="M90.1643 23.5173C92.7464 27.9769 92.7464 33.4714 90.1643 37.931L84.2454 48.1542C81.6633 52.6138 76.8909 55.3611 71.727 55.3611H59.8887C54.7244 55.361 49.9525 52.6138 47.3704 48.1541L41.4512 37.931C38.8691 33.4714 38.8691 27.9769 41.4512 23.5173L47.3704 13.2941C49.9525 8.83445 54.7244 6.08722 59.8887 6.08722H71.727C76.8909 6.08722 81.6633 8.83445 84.2454 13.2941L90.1643 23.5173Z" fill="#DFF0FA"/>
<path d="M71.1449 53.8621C73.727 58.3217 73.727 63.8162 71.1449 68.2759L60.661 86.3826C58.0789 90.8426 53.3069 93.5895 48.1427 93.5895H27.175C22.0107 93.5895 17.2388 90.8426 14.6567 86.3826L4.17276 68.2759C1.59065 63.8162 1.59065 58.3217 4.17276 53.8621L14.6567 35.7551C17.2388 31.2955 22.0107 28.5482 27.175 28.5482H48.1427C53.3069 28.5482 58.0789 31.2955 60.661 35.7551L71.1449 53.8621Z" fill="#B7DCFE"/>
<path d="M147.858 72.2586L128.816 105.148C126.573 109.021 122.429 111.406 117.944 111.406H79.8595C75.3746 111.406 71.2305 109.021 68.9881 105.148L49.9454 72.2586C47.7031 68.3858 47.7031 63.6142 49.9454 59.7414L68.9881 26.8523C71.2305 22.9794 75.3746 20.5937 79.8595 20.5937H117.944C122.429 20.5937 126.573 22.9794 128.816 26.8523L147.858 59.7414C150.101 63.6142 150.101 68.3858 147.858 72.2586Z" fill="#EEF7FF" stroke="white" stroke-width="5"/>
<line x1="75.7532" y1="66.5652" x2="112.753" y2="45.5652" stroke="black"/>
<line y1="-0.5" x2="42.5441" y2="-0.5" transform="matrix(0.869686 0.493606 0.493606 -0.869686 77 67)" stroke="black"/>
<path d="M127.101 45.9996C127.157 53.7307 120.933 60.0446 113.202 60.1006C105.471 60.1565 99.1573 53.9334 99.1013 46.2023C99.0454 38.4712 105.269 32.1573 113 32.1013C120.731 32.0454 127.045 38.2685 127.101 45.9996Z" fill="white" stroke="black"/>
<path d="M127.101 86.9996C127.157 94.7307 120.933 101.045 113.202 101.101C105.471 101.157 99.1573 94.9334 99.1013 87.2023C99.0454 79.4712 105.269 73.1573 113 73.1013C120.731 73.0454 127.045 79.2685 127.101 86.9996Z" fill="white" stroke="black"/>
<path d="M90.1006 65.9996C90.1565 73.7307 83.9334 80.0446 76.2023 80.1006C68.4712 80.1565 62.1573 73.9334 62.1013 66.2023C62.0454 58.4712 68.2685 52.1573 75.9996 52.1013C83.7307 52.0454 90.0446 58.2685 90.1006 65.9996Z" fill="white" stroke="black"/>
<g clip-path="url(#clip0_6_143)">
<path d="M121.004 83.0227C121.016 83.1929 121.016 83.3631 121.016 83.5349C121.016 88.7686 117.124 94.8047 110.007 94.8047V94.8016C107.905 94.8047 105.846 94.1882 104.077 93.0259C104.382 93.0635 104.69 93.0823 104.997 93.0831C106.74 93.0847 108.432 92.4863 109.803 91.3843C108.147 91.3521 106.695 90.247 106.188 88.6337C106.768 88.7482 107.366 88.7247 107.935 88.5655C106.13 88.1921 104.831 86.5686 104.831 84.6831V84.6329C105.369 84.9396 105.971 85.1098 106.587 85.1286C104.887 83.9655 104.363 81.6502 105.39 79.84C107.354 82.3145 110.252 83.8188 113.364 83.978C113.052 82.6023 113.478 81.1608 114.483 80.1937C116.041 78.6941 118.492 78.771 119.957 80.3655C120.823 80.1906 121.654 79.8651 122.414 79.4039C122.125 80.3208 121.521 81.0996 120.713 81.5945C121.48 81.502 122.229 81.2918 122.935 80.971C122.415 81.7678 121.761 82.462 121.004 83.0227Z" fill="#1D9BF0"/>
</g>
<g clip-path="url(#clip1_6_143)">
<path d="M122.403 42.0682C122.185 41.2728 121.558 40.65 120.753 40.4373C119.673 40.0248 109.21 39.8227 106.175 40.4491C105.371 40.6642 104.741 41.2846 104.526 42.08C104.038 44.1955 104.001 48.7691 104.538 50.9318C104.755 51.7272 105.383 52.35 106.187 52.5627C108.326 53.0496 118.495 53.1182 120.765 52.5627C121.57 52.3476 122.199 51.7272 122.414 50.9318C122.934 48.6273 122.971 44.3373 122.403 42.0682Z" fill="#FF0000"/>
<path d="M116.547 46.5L111.672 43.7346V49.2655L116.547 46.5Z" fill="white"/>
</g>
<g clip-path="url(#clip2_6_143)">
<path d="M76 76C81.5228 76 86 71.5228 86 66C86 60.4772 81.5228 56 76 56C70.4772 56 66 60.4772 66 66C66 71.5228 70.4772 76 76 76Z" fill="#3C4C85"/>
<path d="M76.9333 71.9333V66.5333H78.7333L79 64.4H76.9333V63.0667C76.9333 62.4667 77.1333 62.0667 78 62.0667H79.1333V60.1333C78.9333 60.1333 78.2667 60.0667 77.5333 60.0667C75.9333 60.0667 74.8 61.0667 74.8 62.8667V64.4H73V66.5333H74.8V71.9333H76.9333Z" fill="white"/>
</g>
<defs>
<clipPath id="clip0_6_143">
<rect width="19" height="16" fill="white" transform="translate(104 79)"/>
</clipPath>
<clipPath id="clip1_6_143">
<rect width="19" height="13" fill="white" transform="translate(104 40)"/>
</clipPath>
<clipPath id="clip2_6_143">
<rect width="20" height="20" fill="white" transform="translate(66 56)"/>
</clipPath>
</defs>
</svg>
