<svg width="36" height="40" viewBox="0 0 36 40" fill="none" xmlns="http://www.w3.org/2000/svg">
<path d="M23.3883 11.3259C22.9818 10.9571 19.1833 9.47592 15.1244 9.71922C6.86254 10.2145 0.536493 17.0485 1.02667 25.2256C1.28413 29.5205 3.03656 32.6508 5.47397 34.8299C7.90565 37.0039 11.007 38.2213 13.9587 38.7236C16.9064 39.2253 19.736 39.0189 21.6347 38.3121C22.5804 37.96 23.3313 37.4702 23.7299 36.8452C24.1439 36.196 24.1519 35.4416 23.6905 34.6574C22.0543 31.8765 21.7697 29.2637 22.6614 27.3187C23.5485 25.3839 25.641 24.0222 28.957 23.8234C29.6645 23.781 30.209 23.4955 30.5631 23.01C30.9107 22.5334 31.0516 21.8963 31.0286 21.1863C30.9827 19.7684 30.282 17.9586 29.0279 16.2076C28.0646 14.8625 27.6121 14.4867 27.4651 14.394" stroke="white"/>
<path d="M10.4843 34.4594C11.6839 34.4594 12.6564 33.487 12.6564 32.2873C12.6564 31.0877 11.6839 30.1152 10.4843 30.1152C9.28466 30.1152 8.31216 31.0877 8.31216 32.2873C8.31216 33.487 9.28466 34.4594 10.4843 34.4594Z" stroke="white"/>
<path d="M6.14005 29.0288C7.33968 29.0288 8.31217 28.0563 8.31217 26.8567C8.31217 25.6571 7.33968 24.6846 6.14005 24.6846C4.94042 24.6846 3.96793 25.6571 3.96793 26.8567C3.96793 28.0563 4.94042 29.0288 6.14005 29.0288Z" stroke="white"/>
<path d="M7.76914 21.9702C8.96877 21.9702 9.94126 20.9977 9.94126 19.7981C9.94126 18.5985 8.96877 17.626 7.76914 17.626C6.56951 17.626 5.59702 18.5985 5.59702 19.7981C5.59702 20.9977 6.56951 21.9702 7.76914 21.9702Z" stroke="white"/>
<path d="M13.7425 17.6264C14.9421 17.6264 15.9146 16.654 15.9146 15.4543C15.9146 14.2547 14.9421 13.2822 13.7425 13.2822C12.5428 13.2822 11.5703 14.2547 11.5703 15.4543C11.5703 16.654 12.5428 17.6264 13.7425 17.6264Z" stroke="white"/>
<path d="M17.5437 36.0893C18.7433 36.0893 19.7158 35.1168 19.7158 33.9172C19.7158 32.7176 18.7433 31.7451 17.5437 31.7451C16.344 31.7451 15.3716 32.7176 15.3716 33.9172C15.3716 35.1168 16.344 36.0893 17.5437 36.0893Z" stroke="white"/>
<path d="M32.2107 1.16041L32.3736 1L32.5594 1.13315L34.8073 2.74397L35 2.88205L34.889 3.0919M32.2107 1.16041L32.4013 1.35385C32.2107 1.16041 32.2108 1.16037 32.2107 1.16041ZM32.2107 1.16041L32.2098 1.16131L32.2072 1.16387L32.1971 1.17387L32.1575 1.21303C32.1228 1.24746 32.0715 1.29832 32.0054 1.36416C31.8733 1.49585 31.6818 1.68752 31.444 1.92774C30.9686 2.40814 30.3083 3.08291 29.5682 3.86058C28.0897 5.41404 26.2863 7.38507 25.0048 9.0388C23.7488 10.6596 22.3158 12.8509 21.1996 14.6317C20.6408 15.5232 20.1602 16.3138 19.8192 16.8816C19.6487 17.1656 19.5131 17.3939 19.4201 17.5512C19.3735 17.6299 19.3376 17.6909 19.3134 17.7322L19.2858 17.7793L19.2787 17.7914L19.2769 17.7945L19.2765 17.7952M19.2765 17.7952C19.2765 17.7953 19.2763 17.7955 19.5108 17.9324L19.2765 17.7952ZM19.2765 17.7952L19.1544 18.0044L19.3479 18.1495L22.0742 20.1947L22.2691 20.3409L22.4355 20.1629M22.4355 20.1629L22.2371 19.9775C22.4355 20.1629 22.4354 20.163 22.4355 20.1629ZM22.4355 20.1629L22.4363 20.162L22.4388 20.1593L22.4486 20.1489L22.4868 20.1078C22.5204 20.0717 22.57 20.0184 22.6339 19.9494C22.7618 19.8114 22.9471 19.6105 23.1774 19.3591C23.6377 18.8562 24.2779 18.1507 24.9967 17.3399C26.4331 15.72 28.1891 13.6743 29.4538 11.9849C30.7042 10.3144 32.0639 8.08872 33.1081 6.28664C33.6309 5.38441 34.076 4.58606 34.3903 4.01319C34.5475 3.72674 34.6721 3.49658 34.7575 3.33793C34.8001 3.25861 34.833 3.19715 34.8552 3.15547L34.8805 3.108L34.8869 3.09583L34.8886 3.09271L34.889 3.0919M34.889 3.0919C34.8891 3.09185 34.8892 3.09161 34.6492 2.96467L34.889 3.0919Z" stroke="white"/>
<path d="M22.1498 20.413L21.8879 20.3413C22.1498 20.413 22.1498 20.413 22.1498 20.413ZM22.1498 20.413L22.2003 20.2286L22.0436 20.1189L19.3285 18.2183L19.2189 18.1416L19.0913 18.1818M22.1498 20.413L22.1497 20.4136L22.1493 20.4149L22.1479 20.4199L22.1426 20.439C22.1379 20.4557 22.1311 20.48 22.1221 20.5114C22.1042 20.5743 22.0778 20.6652 22.0437 20.7784C21.9756 21.0047 21.8768 21.3208 21.7537 21.6802C21.5088 22.3955 21.1631 23.2966 20.7673 24.0036C20.1325 25.1376 18.7495 25.7739 17.5962 26.1287C17.0097 26.3091 16.4616 26.4228 16.0605 26.4916C15.8597 26.526 15.6951 26.5492 15.5801 26.5639C15.5226 26.5712 15.4774 26.5764 15.4463 26.5799C15.4308 26.5815 15.4187 26.5828 15.4104 26.5837L15.4008 26.5846L15.3981 26.5849L15.3968 26.585M19.0913 18.1818L19.1728 18.4408C19.0913 18.1818 19.0913 18.1818 19.0913 18.1818ZM19.0913 18.1818L19.0902 18.1821L19.0883 18.1827L19.0815 18.1849L19.0572 18.1929C19.0364 18.1998 19.0063 18.21 18.9684 18.2235C18.8925 18.2504 18.7849 18.2902 18.6555 18.3428C18.3975 18.4477 18.0499 18.6046 17.6948 18.812C17.3411 19.0186 16.9706 19.2809 16.6741 19.5994C16.3776 19.9178 16.1421 20.307 16.0895 20.764C16.0004 21.5374 16.0013 21.8693 16.0021 22.1981C16.0029 22.5106 16.0037 22.821 15.9164 23.568C15.8427 24.1985 15.6466 24.8552 15.4654 25.3603C15.3753 25.6115 15.2899 25.8223 15.2272 25.9699C15.1959 26.0436 15.1703 26.1015 15.1527 26.1406C15.1439 26.1601 15.1371 26.175 15.1326 26.1848L15.1275 26.1956L15.1264 26.1981L15.1261 26.1985L14.9223 26.6293L15.3968 26.585M15.3968 26.585L15.3716 26.3146C15.3968 26.585 15.3967 26.5851 15.3968 26.585Z" stroke="white"/>
</svg>
