<svg width="83" height="78" viewBox="0 0 83 78" fill="none" xmlns="http://www.w3.org/2000/svg">
<rect x="9" y="1" width="65" height="76" fill="#B1C0E6" stroke="#8FA3CA" stroke-width="2"/>
<rect x="16" y="7" width="14" height="14" rx="4" fill="#8A9EC4"/>
<rect x="36" y="7" width="18" height="5" rx="2" fill="#8A9EC3"/>
<rect x="36" y="16" width="29" height="5" rx="2" fill="#8A9EC3"/>
<rect x="17" y="58" width="14" height="14" rx="4" fill="#8A9EC4"/>
<rect x="37" y="58" width="18" height="5" rx="2" fill="#8A9EC3"/>
<rect x="37" y="67" width="29" height="5" rx="2" fill="#8A9EC3"/>
<g filter="url(#filter0_d_27_116)">
<rect x="4" y="25" width="75" height="27" rx="4" fill="white"/>
</g>
<rect x="17" y="32" width="14" height="14" rx="4" fill="#4573CB"/>
<rect x="37" y="32" width="18" height="5" rx="2" fill="#4573CB"/>
<rect x="37" y="41" width="29" height="5" rx="2" fill="#9DC0FF"/>
<defs>
<filter id="filter0_d_27_116" x="0" y="25" width="83" height="35" filterUnits="userSpaceOnUse" color-interpolation-filters="sRGB">
<feFlood flood-opacity="0" result="BackgroundImageFix"/>
<feColorMatrix in="SourceAlpha" type="matrix" values="0 0 0 0 0 0 0 0 0 0 0 0 0 0 0 0 0 0 127 0" result="hardAlpha"/>
<feOffset dy="4"/>
<feGaussianBlur stdDeviation="2"/>
<feComposite in2="hardAlpha" operator="out"/>
<feColorMatrix type="matrix" values="0 0 0 0 0 0 0 0 0 0 0 0 0 0 0 0 0 0 0.25 0"/>
<feBlend mode="normal" in2="BackgroundImageFix" result="effect1_dropShadow_27_116"/>
<feBlend mode="normal" in="SourceGraphic" in2="effect1_dropShadow_27_116" result="shape"/>
</filter>
</defs>
</svg>
