<svg width="194" height="132" viewBox="0 0 194 132" fill="none" xmlns="http://www.w3.org/2000/svg">
<path d="M104.165 96.5345L110.084 86.3113C112.598 81.969 117.244 79.2941 122.273 79.2941H134.111C139.14 79.2941 143.786 81.969 146.3 86.3113L152.219 96.5345C154.734 100.877 154.734 106.227 152.219 110.569L146.3 120.792C143.786 125.134 139.14 127.809 134.111 127.809H122.273C117.244 127.809 112.598 125.134 110.084 120.792L104.165 110.569C101.651 106.227 101.651 100.877 104.165 96.5345Z" fill="#DFF0FA" stroke="#84BAD9"/>
<path d="M87.0984 44.7586C84.5163 40.299 84.5163 34.8045 87.0984 30.3449L97.582 12.2379C100.164 7.77824 104.937 5.03101 110.101 5.03101H131.068C136.232 5.03101 141.005 7.77824 143.587 12.2379L154.07 30.3449C156.652 34.8045 156.652 40.299 154.07 44.7586L143.587 62.8656C141.005 67.3253 136.232 70.0725 131.068 70.0725H110.101C104.937 70.0725 100.164 67.3253 97.582 62.8656L87.0984 44.7586Z" fill="#CAEFFB"/>
<path d="M103.836 110.759C101.254 106.299 101.254 100.805 103.836 96.3448L109.755 86.1216C112.337 81.6617 117.109 78.9147 122.273 78.9147H134.111C139.275 78.9147 144.048 81.6617 146.63 86.1216L152.549 96.3448C155.131 100.805 155.131 106.299 152.549 110.759L146.63 120.982C144.048 125.442 139.275 128.189 134.111 128.189H122.273C117.109 128.189 112.337 125.442 109.755 120.982L103.836 110.759Z" fill="#DFF0FA"/>
<path d="M122.855 80.4139C120.273 75.9539 120.273 70.4597 122.855 66.0001L133.339 47.8931C135.921 43.4335 140.693 40.6862 145.858 40.6862H166.825C171.989 40.6862 176.761 43.4335 179.343 47.8931L189.827 66.0001C192.409 70.4597 192.409 75.9539 189.827 80.4139L179.343 98.5206C176.761 102.98 171.989 105.727 166.825 105.727H145.858C140.693 105.727 135.921 102.98 133.339 98.5206L122.855 80.4139Z" fill="#B7DCFE"/>
<path d="M42.9727 101.655C40.3906 97.1952 40.3906 91.7013 42.9727 87.2414L53.4567 69.1344C56.0388 64.6748 60.8107 61.9275 65.975 61.9275H86.9424C92.1066 61.9275 96.879 64.6748 99.4611 69.1344L109.945 87.2414C112.527 91.7013 112.527 97.1952 109.945 101.655L99.4611 119.762C96.879 124.222 92.1066 126.969 86.9424 126.969H65.975C60.8107 126.969 56.0388 124.222 53.4567 119.762L42.9727 101.655Z" fill="#CAEFFB"/>
<path d="M90.1644 23.5172C92.7465 27.9768 92.7465 33.4714 90.1644 37.931L84.2455 48.1542C81.6634 52.6138 76.8909 55.3611 71.727 55.3611H59.8887C54.7244 55.361 49.9525 52.6138 47.3704 48.1541L41.4512 37.931C38.8691 33.4714 38.8691 27.9768 41.4512 23.5172L47.3704 13.294C49.9525 8.83439 54.7244 6.08716 59.8887 6.08716H71.727C76.8909 6.08716 81.6634 8.83439 84.2455 13.294L90.1644 23.5172Z" fill="#DFF0FA"/>
<path d="M71.1449 53.8621C73.727 58.3217 73.727 63.8163 71.1449 68.2759L60.661 86.3826C58.0789 90.8426 53.3069 93.5895 48.1427 93.5895H27.175C22.0107 93.5895 17.2388 90.8426 14.6567 86.3826L4.17277 68.2759C1.59065 63.8163 1.59065 58.3217 4.17277 53.8621L14.6567 35.7551C17.2388 31.2955 22.0107 28.5482 27.175 28.5482H48.1427C53.3069 28.5482 58.0789 31.2955 60.661 35.7551L71.1449 53.8621Z" fill="#B7DCFE"/>
<path d="M147.858 72.2586L128.816 105.148C126.573 109.021 122.429 111.406 117.944 111.406H79.8595C75.3746 111.406 71.2305 109.021 68.9881 105.148L49.9454 72.2586C47.7031 68.3857 47.7031 63.6142 49.9454 59.7413L68.9881 26.8522C71.2305 22.9793 75.3746 20.5936 79.8595 20.5936H117.944C122.429 20.5936 126.573 22.9794 128.816 26.8522L147.858 59.7413C150.101 63.6142 150.101 68.3857 147.858 72.2586Z" fill="#EEF7FF" stroke="white" stroke-width="5"/>
<path d="M75.7532 66.5652L112.753 45.5652" stroke="black"/>
<path d="M76.7532 67.4348L113.753 88.4348" stroke="black"/>
<path d="M99.8994 45.9996C99.8435 53.7307 106.067 60.0446 113.798 60.1006C121.529 60.1565 127.843 53.9334 127.899 46.2023C127.955 38.4712 121.731 32.1573 114 32.1013C106.269 32.0454 99.9554 38.2685 99.8994 45.9996Z" fill="#4BA0BF" stroke="black"/>
<path d="M61.8994 65.9996C61.8435 73.7307 68.0666 80.0446 75.7977 80.1006C83.5288 80.1565 89.8427 73.9334 89.8987 66.2023C89.9546 58.4712 83.7315 52.1573 76.0004 52.1013C68.2693 52.0454 61.9554 58.2685 61.8994 65.9996Z" fill="#4BA0BF" stroke="black"/>
<mask id="mask0_11_213" style="mask-type:luminance" maskUnits="userSpaceOnUse" x="105" y="39" width="18" height="15">
<path d="M123 39H105V54H123V39Z" fill="white"/>
</mask>
<g mask="url(#mask0_11_213)">
<path d="M121.109 42.7713C121.12 42.9309 121.12 43.0904 121.12 43.2515C121.12 48.1581 117.433 53.8169 110.691 53.8169V53.814C108.699 53.8169 106.749 53.239 105.073 52.1493C105.362 52.1846 105.653 52.2022 105.945 52.2029C107.595 52.2044 109.199 51.6434 110.497 50.6103C108.929 50.5802 107.553 49.5441 107.073 48.0316C107.622 48.139 108.188 48.1169 108.728 47.9677C107.018 47.6177 105.788 46.0956 105.788 44.3279V44.2809C106.297 44.5684 106.868 44.7279 107.451 44.7456C105.84 43.6552 105.344 41.4846 106.317 39.7875C108.178 42.1074 110.923 43.5177 113.871 43.6669C113.575 42.3772 113.979 41.0257 114.931 40.1191C116.408 38.7132 118.729 38.7853 120.117 40.2802C120.938 40.1162 121.725 39.811 122.445 39.3787C122.171 40.2382 121.598 40.9684 120.833 41.4324C121.56 41.3456 122.27 41.1485 122.938 40.8478C122.446 41.5949 121.826 42.2456 121.109 42.7713Z" fill="white"/>
</g>
<mask id="mask1_11_213" style="mask-type:luminance" maskUnits="userSpaceOnUse" x="67" y="60" width="18" height="13">
<path d="M85 60H67V73H85V60Z" fill="white"/>
</mask>
<g mask="url(#mask1_11_213)">
<path d="M84.434 62.0682C84.2279 61.2728 83.6336 60.65 82.8717 60.4373C81.8483 60.0248 71.9358 59.8227 69.0604 60.4491C68.2985 60.6642 67.7019 61.2846 67.4981 62.08C67.0362 64.1955 67.0011 68.7691 67.5094 70.9318C67.7155 71.7272 68.3098 72.35 69.0717 72.5627C71.0981 73.0496 80.7321 73.1182 82.883 72.5627C83.6449 72.3476 84.2415 71.7272 84.4453 70.9318C84.9377 68.6273 84.9728 64.3373 84.434 62.0682Z" fill="white"/>
<path d="M78.8868 66.5L74.2679 63.7346V69.2655L78.8868 66.5Z" fill="#4BA0BF"/>
</g>
<path d="M99.8994 86.9996C99.8435 94.7307 106.067 101.045 113.798 101.101C121.529 101.157 127.843 94.9334 127.899 87.2023C127.955 79.4712 121.731 73.1573 114 73.1013C106.269 73.0454 99.9554 79.2685 99.8994 86.9996Z" fill="#4BA0BF" stroke="black"/>
<path d="M114.507 95.6133V88.0533H117.027L117.4 85.0667H114.507V83.2C114.507 82.36 114.787 81.8 116 81.8H117.587V79.0933C117.307 79.0933 116.373 79 115.347 79C113.107 79 111.52 80.4 111.52 82.92V85.0667H109V88.0533H111.52V95.6133H114.507Z" fill="white"/>
</svg>
