<svg width="194" height="132" viewBox="0 0 194 132" fill="none" xmlns="http://www.w3.org/2000/svg">
<path d="M104.165 96.5345L110.084 86.3113C112.598 81.969 117.244 79.2941 122.273 79.2941H134.111C139.14 79.2941 143.786 81.969 146.3 86.3113L152.219 96.5345C154.734 100.877 154.734 106.227 152.219 110.569L146.3 120.792C143.786 125.134 139.14 127.809 134.111 127.809H122.273C117.244 127.809 112.598 125.134 110.084 120.792L104.165 110.569C101.651 106.227 101.651 100.877 104.165 96.5345Z" fill="#DFF0FA" stroke="#84BAD9"/>
<path d="M87.0984 44.7586C84.5163 40.299 84.5163 34.8045 87.0984 30.3448L97.582 12.2378C100.164 7.7782 104.937 5.03098 110.101 5.03098H131.068C136.232 5.03098 141.005 7.7782 143.587 12.2378L154.07 30.3448C156.652 34.8045 156.652 40.299 154.07 44.7586L143.587 62.8656C141.005 67.3252 136.232 70.0725 131.068 70.0725H110.101C104.937 70.0725 100.164 67.3252 97.582 62.8656L87.0984 44.7586Z" fill="#CAEFFB"/>
<path d="M103.836 110.759C101.254 106.299 101.254 100.805 103.836 96.3448L109.755 86.1217C112.337 81.6617 117.109 78.9148 122.273 78.9148H134.111C139.275 78.9148 144.048 81.6617 146.63 86.1217L152.549 96.3448C155.131 100.805 155.131 106.299 152.549 110.759L146.63 120.982C144.048 125.442 139.275 128.189 134.111 128.189H122.273C117.109 128.189 112.337 125.442 109.755 120.982L103.836 110.759Z" fill="#DFF0FA"/>
<path d="M122.855 80.4138C120.273 75.9539 120.273 70.4596 122.855 66L133.339 47.893C135.921 43.4334 140.693 40.6861 145.858 40.6861H166.825C171.989 40.6861 176.761 43.4334 179.343 47.893L189.827 66C192.409 70.4596 192.409 75.9539 189.827 80.4138L179.343 98.5206C176.761 102.98 171.989 105.727 166.825 105.727H145.858C140.693 105.727 135.921 102.98 133.339 98.5206L122.855 80.4138Z" fill="#B7DCFE"/>
<path d="M42.9727 101.655C40.3906 97.1952 40.3906 91.7013 42.9727 87.2414L53.4567 69.1344C56.0388 64.6748 60.8107 61.9275 65.975 61.9275H86.9424C92.1066 61.9275 96.879 64.6748 99.4611 69.1344L109.945 87.2414C112.527 91.7013 112.527 97.1952 109.945 101.655L99.4611 119.762C96.879 124.222 92.1066 126.969 86.9424 126.969H65.975C60.8107 126.969 56.0388 124.222 53.4567 119.762L42.9727 101.655Z" fill="#CAEFFB"/>
<path d="M90.1643 23.5173C92.7464 27.9769 92.7464 33.4714 90.1643 37.931L84.2454 48.1542C81.6633 52.6138 76.8909 55.3611 71.727 55.3611H59.8887C54.7244 55.361 49.9525 52.6138 47.3704 48.1541L41.4512 37.931C38.8691 33.4714 38.8691 27.9769 41.4512 23.5173L47.3704 13.2941C49.9525 8.83445 54.7244 6.08722 59.8887 6.08722H71.727C76.8909 6.08722 81.6633 8.83445 84.2454 13.2941L90.1643 23.5173Z" fill="#DFF0FA"/>
<path d="M71.1449 53.8621C73.727 58.3217 73.727 63.8162 71.1449 68.2759L60.661 86.3826C58.0789 90.8426 53.3069 93.5895 48.1427 93.5895H27.175C22.0107 93.5895 17.2388 90.8426 14.6567 86.3826L4.17277 68.2759C1.59065 63.8162 1.59065 58.3217 4.17277 53.8621L14.6567 35.7551C17.2388 31.2955 22.0107 28.5482 27.175 28.5482H48.1427C53.3069 28.5482 58.0789 31.2955 60.661 35.7551L71.1449 53.8621Z" fill="#B7DCFE"/>
<path d="M147.858 72.2586L128.816 105.148C126.573 109.021 122.429 111.406 117.944 111.406H79.8595C75.3746 111.406 71.2305 109.021 68.9881 105.148L49.9454 72.2586C47.7031 68.3858 47.7031 63.6142 49.9454 59.7414L68.9881 26.8523C71.2305 22.9794 75.3746 20.5937 79.8595 20.5937H117.944C122.429 20.5937 126.573 22.9794 128.816 26.8523L147.858 59.7414C150.101 63.6142 150.101 68.3858 147.858 72.2586Z" fill="#EEF7FF" stroke="white" stroke-width="5"/>
<path d="M98.7506 85.7583L71.8371 79.1939V57.3651L98.7506 63.7482L125.663 57.3651V79.3866L98.7506 85.7583Z" fill="#DBF8FF" stroke="black"/>
<path d="M71.9279 61.7382L67.7098 60.7711V84.2972L98.9111 91.7119L130.094 84.2327V60.7711L125.812 61.7382" stroke="black"/>
<path d="M67.7098 83.6076V88.1661L98.9111 95.5801L130.094 88.1016V83.7176" stroke="black"/>
<path d="M98.87 63.709L99 92" stroke="black"/>
<path d="M104.374 72.1575V66.312L120.866 62.3169V68.1625L104.374 72.1575Z" fill="#36FFFF" stroke="black"/>
<path d="M76.5463 63.0041L93.5924 66.832" stroke="black" stroke-linecap="round"/>
<path d="M76.4702 67.4576L93.5164 71.6092" stroke="black" stroke-linecap="round"/>
<path d="M76.4079 72.0223L93.26 76.3028" stroke="black" stroke-linecap="round"/>
<path d="M110.547 44.8339C110.547 49.9864 107.105 54.3443 102.369 55.784C101.29 56.112 98.8761 61.5819 98.8761 61.5819C98.8761 61.5819 96.4545 56.085 95.3073 55.709C90.6946 54.1978 87.3669 49.8999 87.3669 44.8339C87.3669 38.5077 92.5555 33.3793 98.9567 33.3793C105.358 33.3793 110.547 38.5077 110.547 44.8339Z" fill="white" stroke="black" stroke-linecap="round"/>
<path d="M100.257 46.8221C102.098 46.8221 103.591 45.3466 103.591 43.5266C103.591 41.7065 102.098 40.231 100.257 40.231C98.4151 40.231 96.9224 41.7065 96.9224 43.5266C96.9224 45.3466 98.4151 46.8221 100.257 46.8221Z" stroke="black" stroke-linecap="round"/>
<path d="M97.7357 45.7913L94.1927 49.293" stroke="black"/>
<path d="M85.5341 91.8013C78.1708 90.0515 71.2738 88.4143 70.2073 88.1632L68.2683 87.7065V86.402C68.2683 85.607 68.327 85.0976 68.4186 85.0976C68.5013 85.0976 75.3989 86.7201 83.7466 88.7032L98.9243 92.3088L114.072 88.6793C122.403 86.6831 129.304 85.0196 129.408 84.9827C129.555 84.9303 129.588 85.2158 129.555 86.281L129.512 87.6466L122.341 89.3661C118.398 90.3118 111.515 91.9625 107.046 93.0342L98.9218 94.9828L85.5341 91.8013Z" fill="#89BFFF"/>
</svg>
