<svg width="255" height="174" viewBox="0 0 255 174" fill="none" xmlns="http://www.w3.org/2000/svg">
<path d="M136.918 127.25L144.698 113.774C148.003 108.05 154.11 104.524 160.72 104.524H176.28C182.89 104.524 188.997 108.05 192.302 113.774L200.082 127.25C203.387 132.974 203.387 140.026 200.082 145.75L192.302 159.226C188.997 164.95 182.89 168.476 176.28 168.476H160.72C154.11 168.476 148.003 164.95 144.698 159.226L136.918 145.75C133.613 140.026 133.613 132.974 136.918 127.25Z" fill="#DFF0FA" stroke="#84BAD9"/>
<path d="M114.485 59.0001C111.091 53.1215 111.091 45.8787 114.485 40.0001L128.265 16.1318C131.659 10.2532 137.932 6.63184 144.72 6.63184H172.28C179.068 6.63184 185.341 10.2532 188.735 16.1318L202.515 40.0001C205.909 45.8787 205.909 53.1215 202.515 59.0001L188.735 82.8684C185.341 88.747 179.068 92.3684 172.28 92.3684H144.72C137.932 92.3684 131.659 88.747 128.265 82.8684L114.485 59.0001Z" fill="#CAEFFB"/>
<path d="M136.485 146C133.091 140.121 133.091 132.879 136.485 127L144.265 113.524C147.659 107.645 153.932 104.024 160.72 104.024H176.28C183.068 104.024 189.341 107.645 192.735 113.524L200.515 127C203.909 132.879 203.909 140.121 200.515 146L192.735 159.476C189.341 165.355 183.068 168.976 176.28 168.976H160.72C153.932 168.976 147.659 165.355 144.265 159.476L136.485 146Z" fill="#DFF0FA"/>
<path d="M161.485 106C158.091 100.121 158.091 92.8787 161.485 87.0001L175.265 63.1318C178.659 57.2532 184.932 53.6318 191.72 53.6318H219.28C226.068 53.6318 232.341 57.2532 235.735 63.1318L249.515 87.0001C252.909 92.8787 252.909 100.121 249.515 106L235.735 129.868C232.341 135.747 226.068 139.368 219.28 139.368H191.72C184.932 139.368 178.659 135.747 175.265 129.868L161.485 106Z" fill="#B7DCFE"/>
<path d="M56.485 134C53.091 128.121 53.091 120.879 56.485 115L70.2654 91.1318C73.6594 85.2532 79.9318 81.6318 86.7199 81.6318H114.28C121.068 81.6318 127.341 85.2532 130.735 91.1318L144.515 115C147.909 120.879 147.909 128.121 144.515 134L130.735 157.868C127.341 163.747 121.068 167.368 114.28 167.368H86.7199C79.9318 167.368 73.6594 163.747 70.2654 157.868L56.485 134Z" fill="#CAEFFB"/>
<path d="M118.515 30.9999C121.909 36.8785 121.909 44.1213 118.515 49.9999L110.735 63.4759C107.341 69.3545 101.068 72.9759 94.2805 72.9759H78.7199C71.9318 72.9758 65.6594 69.3545 62.2654 63.4758L54.485 49.9999C51.091 44.1213 51.091 36.8785 54.485 30.9999L62.2654 17.5239C65.6594 11.6453 71.9318 8.02393 78.7199 8.02393H94.2805C101.068 8.02393 107.341 11.6453 110.735 17.5239L118.515 30.9999Z" fill="#DFF0FA"/>
<path d="M93.5153 71.0001C96.9093 76.8787 96.9093 84.1215 93.5153 90.0001L79.7349 113.868C76.3409 119.747 70.0685 123.368 63.2804 123.368H35.7198C28.9317 123.368 22.6593 119.747 19.2653 113.868L5.48497 90.0001C2.09095 84.1215 2.09095 76.8787 5.48497 71.0001L19.2653 47.1318C22.6593 41.2532 28.9317 37.6318 35.7198 37.6318H63.2804C70.0685 37.6318 76.3409 41.2532 79.7349 47.1318L93.5153 71.0001Z" fill="#B7DCFE"/>
<path d="M194.35 95.2498L169.32 138.604C166.372 143.709 160.925 146.854 155.03 146.854H104.97C99.0749 146.854 93.6278 143.709 90.6803 138.604L65.65 95.2498C62.7026 90.1447 62.7026 83.8549 65.65 78.7498L90.6803 35.396C93.6278 30.2908 99.0749 27.146 104.97 27.146H155.03C160.925 27.146 166.372 30.2909 169.32 35.396L194.35 78.7498C197.298 83.8549 197.298 90.1447 194.35 95.2498Z" fill="#EEF7FF" stroke="white" stroke-width="5"/>
<path d="M121.273 128.091L138.727 135.727" stroke="black"/>
<path d="M120.955 128.665L138.659 121.019" stroke="black"/>
<path d="M143 135.5C143 137.985 140.985 140 138.5 140C136.015 140 134 137.985 134 135.5C134 133.015 136.015 131 138.5 131C140.985 131 143 133.015 143 135.5Z" fill="black"/>
<path d="M143 121.5C143 123.985 140.985 126 138.5 126C136.015 126 134 123.985 134 121.5C134 119.015 136.015 117 138.5 117C140.985 117 143 119.015 143 121.5Z" fill="black"/>
<path d="M126 128.5C126 130.985 123.985 133 121.5 133C119.015 133 117 130.985 117 128.5C117 126.015 119.015 124 121.5 124C123.985 124 126 126.015 126 128.5Z" fill="black"/>
<path d="M134 68H152V86H134V68Z" fill="black"/>
<g clip-path="url(#clip0_23_1004)">
<path d="M143.769 76.9999C143.769 75.3431 142.253 74 140.384 74C138.515 74 137 75.3434 137 76.9999C137 78.6565 138.515 80 140.384 80C142.254 80 143.769 78.6568 143.769 76.9999Z" fill="white"/>
<path d="M147.482 76.9999C147.482 75.4404 146.724 74.1756 145.789 74.1756C144.855 74.1756 144.097 75.4404 144.097 76.9999C144.097 78.5595 144.855 79.8242 145.789 79.8242C146.724 79.8242 147.482 78.5599 147.482 76.9999Z" fill="white"/>
<path d="M149 77.0001C149 75.6032 148.733 74.47 148.405 74.47C148.076 74.47 147.81 75.6029 147.81 77.0001C147.81 78.3974 148.076 79.5303 148.405 79.5303C148.733 79.5303 149 78.3975 149 77.0001Z" fill="white"/>
</g>
<g clip-path="url(#clip1_23_1004)">
<path d="M87.506 76.1895C82.3656 76.1895 80.8623 76.1948 80.5701 76.219C79.5152 76.3067 78.8587 76.4728 78.1436 76.8288C77.5925 77.1025 77.1578 77.4198 76.7289 77.8645C75.9477 78.6754 75.4742 79.6732 75.3028 80.8591C75.2195 81.4349 75.1952 81.5523 75.1903 84.4932C75.1884 85.4735 75.1903 86.7637 75.1903 88.4942C75.1903 93.6306 75.196 95.1324 75.2206 95.4241C75.3058 96.4506 75.4668 97.0965 75.8077 97.8029C76.4592 99.1552 77.7035 100.17 79.1693 100.549C79.6769 100.68 80.2375 100.752 80.9572 100.786C81.2621 100.799 84.3699 100.809 87.4797 100.809C90.5894 100.809 93.6992 100.805 93.9965 100.79C94.8299 100.75 95.3137 100.685 95.8488 100.547C97.3241 100.167 98.5456 99.1665 99.2104 97.7953C99.5447 97.1059 99.7142 96.4355 99.7909 95.4626C99.8075 95.2504 99.8145 91.8684 99.8145 88.491C99.8145 85.1129 99.807 81.7372 99.7903 81.5251C99.7127 80.5364 99.5432 79.8716 99.1981 79.169C98.915 78.5938 98.6006 78.1643 98.1441 77.7251C97.3296 76.947 96.3334 76.4735 95.1463 76.3023C94.5711 76.2192 94.4566 76.1946 91.5135 76.1895H87.506Z" fill="url(#paint0_radial_23_1004)"/>
<path d="M87.506 76.1895C82.3656 76.1895 80.8623 76.1948 80.5701 76.219C79.5152 76.3067 78.8587 76.4728 78.1436 76.8288C77.5925 77.1025 77.1578 77.4198 76.7289 77.8645C75.9477 78.6754 75.4742 79.6732 75.3028 80.8591C75.2195 81.4349 75.1952 81.5523 75.1903 84.4932C75.1884 85.4735 75.1903 86.7637 75.1903 88.4942C75.1903 93.6306 75.196 95.1324 75.2206 95.4241C75.3058 96.4506 75.4668 97.0965 75.8077 97.8029C76.4592 99.1552 77.7035 100.17 79.1693 100.549C79.6769 100.68 80.2375 100.752 80.9572 100.786C81.2621 100.799 84.3699 100.809 87.4797 100.809C90.5894 100.809 93.6992 100.805 93.9965 100.79C94.8299 100.75 95.3137 100.685 95.8488 100.547C97.3241 100.167 98.5456 99.1665 99.2104 97.7953C99.5447 97.1059 99.7142 96.4355 99.7909 95.4626C99.8075 95.2504 99.8145 91.8684 99.8145 88.491C99.8145 85.1129 99.807 81.7372 99.7903 81.5251C99.7127 80.5364 99.5432 79.8716 99.1981 79.169C98.915 78.5938 98.6006 78.1643 98.1441 77.7251C97.3296 76.947 96.3334 76.4735 95.1463 76.3023C94.5711 76.2192 94.4566 76.1946 91.5135 76.1895H87.506Z" fill="url(#paint1_radial_23_1004)"/>
<path d="M87.5006 79.4092C85.0317 79.4092 84.7219 79.42 83.7522 79.4641C82.7844 79.5084 82.1238 79.6616 81.5458 79.8865C80.9479 80.1186 80.4407 80.4293 79.9355 80.9347C79.4298 81.4401 79.1192 81.9472 78.8862 82.545C78.6609 83.1232 78.5075 83.784 78.4639 84.7514C78.4205 85.7211 78.4092 86.0311 78.4092 88.5001C78.4092 90.969 78.4202 91.2779 78.4641 92.2476C78.5086 93.2154 78.6618 93.876 78.8864 94.4541C79.1188 95.052 79.4294 95.5592 79.9349 96.0645C80.44 96.5702 80.9472 96.8815 81.5447 97.1137C82.1231 97.3385 82.7839 97.4918 83.7514 97.5361C84.7211 97.5802 85.0308 97.591 87.4994 97.591C89.9685 97.591 90.2774 97.5802 91.247 97.5361C92.2148 97.4918 92.8762 97.3385 93.4546 97.1137C94.0523 96.8815 94.5587 96.5702 95.0638 96.0645C95.5695 95.5592 95.8801 95.052 96.113 94.4543C96.3365 93.876 96.4899 93.2152 96.5353 92.2478C96.5789 91.2781 96.5903 90.969 96.5903 88.5001C96.5903 86.0311 96.5789 85.7213 96.5353 84.7516C96.4899 83.7838 96.3365 83.1232 96.113 82.5452C95.8801 81.9472 95.5695 81.4401 95.0638 80.9347C94.5581 80.4291 94.0525 80.1185 93.454 79.8865C92.8745 79.6616 92.2135 79.5084 91.2457 79.4641C90.2761 79.42 89.9674 79.4092 87.4977 79.4092H87.5006ZM86.6851 81.0474C86.9271 81.0471 87.1972 81.0474 87.5006 81.0474C89.9278 81.0474 90.2155 81.0561 91.1739 81.0997C92.0603 81.1402 92.5413 81.2883 92.8618 81.4128C93.286 81.5776 93.5885 81.7745 93.9064 82.0927C94.2246 82.4109 94.4216 82.7139 94.5867 83.1382C94.7111 83.4582 94.8594 83.9393 94.8998 84.8257C94.9433 85.784 94.9528 86.0719 94.9528 88.498C94.9528 90.9241 94.9433 91.212 94.8998 92.1704C94.8592 93.0567 94.7111 93.5378 94.5867 93.8579C94.422 94.2821 94.2246 94.5842 93.9064 94.9022C93.5883 95.2204 93.2862 95.4173 92.8618 95.5821C92.5417 95.7071 92.0603 95.8548 91.1739 95.8954C90.2156 95.9389 89.9278 95.9484 87.5006 95.9484C85.0732 95.9484 84.7855 95.9389 83.8272 95.8954C82.9409 95.8544 82.4598 95.7063 82.1392 95.5819C81.715 95.4171 81.4119 95.2202 81.0938 94.902C80.7756 94.5838 80.5786 94.2815 80.4135 93.8571C80.289 93.537 80.1408 93.056 80.1004 92.1696C80.0569 91.2113 80.0481 90.9234 80.0481 88.4957C80.0481 86.0681 80.0569 85.7817 80.1004 84.8234C80.1409 83.937 80.289 83.456 80.4135 83.1355C80.5782 82.7113 80.7756 82.4082 81.0938 82.0901C81.4119 81.7719 81.715 81.5749 82.1392 81.4097C82.4596 81.2847 82.9409 81.137 83.8272 81.0963C84.6658 81.0584 84.9908 81.0471 86.6851 81.0452V81.0474ZM92.3531 82.5569C91.7508 82.5569 91.2622 83.045 91.2622 83.6474C91.2622 84.2497 91.7508 84.7383 92.3531 84.7383C92.9553 84.7383 93.444 84.2497 93.444 83.6474C93.444 83.0452 92.9553 82.5565 92.3531 82.5565V82.5569ZM87.5006 83.8315C84.9224 83.8315 82.8322 85.9219 82.8322 88.5001C82.8322 91.0783 84.9224 93.1677 87.5006 93.1677C90.0787 93.1677 92.1682 91.0783 92.1682 88.5001C92.1682 85.9219 90.0787 83.8315 87.5006 83.8315ZM87.5006 85.4698C89.174 85.4698 90.5308 86.8264 90.5308 88.5001C90.5308 90.1736 89.174 91.5304 87.5006 91.5304C85.8269 91.5304 84.4704 90.1736 84.4704 88.5001C84.4704 86.8264 85.8269 85.4698 87.5006 85.4698Z" fill="white"/>
</g>
<g clip-path="url(#clip2_23_1004)">
<path d="M129.339 73.3863C129.099 72.4686 128.406 71.7499 127.517 71.5045C126.323 71.0286 114.758 70.7954 111.404 71.5181C110.515 71.7663 109.819 72.4822 109.581 73.3999C109.042 75.8408 109.001 81.1181 109.594 83.6136C109.835 84.5313 110.528 85.2499 111.417 85.4954C113.781 86.0572 125.021 86.1363 127.53 85.4954C128.419 85.2472 129.115 84.5313 129.353 83.6136C129.927 80.9545 129.968 76.0045 129.339 73.3863Z" fill="#FF0000"/>
<path d="M122.868 78.5L117.479 75.3091V81.6909L122.868 78.5Z" fill="white"/>
</g>
<path d="M184.926 93.9631C184.926 100.57 179.57 105.926 172.963 105.926C166.356 105.926 161 100.57 161 93.9631C161 87.356 166.356 82 172.963 82C179.57 82 184.926 87.356 184.926 93.9631Z" fill="white"/>
<path d="M173 82C166.373 82 161 87.3726 161 94C161 99.0838 164.163 103.43 168.627 105.178C168.522 104.229 168.427 102.769 168.668 101.732C168.887 100.796 170.076 95.7674 170.076 95.7674C170.076 95.7674 169.717 95.0485 169.717 93.9857C169.717 92.3171 170.684 91.0714 171.888 91.0714C172.912 91.0714 173.406 91.8401 173.406 92.7618C173.406 93.7914 172.751 95.3307 172.413 96.7572C172.13 97.9516 173.011 98.9256 174.189 98.9256C176.322 98.9256 177.962 96.6768 177.962 93.4306C177.962 90.5573 175.897 88.5485 172.949 88.5485C169.535 88.5485 167.531 91.1095 167.531 93.7561C167.531 94.7875 167.928 95.8935 168.424 96.4947C168.522 96.6135 168.536 96.7176 168.507 96.8389C168.416 97.2179 168.214 98.033 168.174 98.1998C168.121 98.4194 168 98.4661 167.772 98.3602C166.274 97.6626 165.337 95.4714 165.337 93.7114C165.337 89.926 168.087 86.4496 173.266 86.4496C177.428 86.4496 180.663 89.416 180.663 93.3803C180.663 97.5159 178.056 100.844 174.436 100.844C173.22 100.844 172.077 100.213 171.686 99.4664C171.686 99.4664 171.084 101.758 170.938 102.319C170.667 103.361 169.936 104.668 169.447 105.465C170.57 105.813 171.763 106 173 106C179.627 106 185 100.627 185 94C185 87.3726 179.627 82 173 82Z" fill="#E60023"/>
<g clip-path="url(#clip3_23_1004)">
<path fill-rule="evenodd" clip-rule="evenodd" d="M96.4687 52C90.6798 52 86 56.5833 86 62.2535C86 66.786 88.9985 70.6227 93.1582 71.9806C93.6783 72.0827 93.8688 71.76 93.8688 71.4885C93.8688 71.2508 93.8516 70.436 93.8516 69.5871C90.9395 70.1983 90.3331 68.3648 90.3331 68.3648C89.8651 67.1765 89.1716 66.871 89.1716 66.871C88.2185 66.2429 89.2411 66.2429 89.2411 66.2429C90.2984 66.3108 90.8531 67.2954 90.8531 67.2954C91.7889 68.8571 93.2969 68.4158 93.9035 68.1442C93.9901 67.4821 94.2676 67.0237 94.5622 66.7692C92.2396 66.5315 89.7959 65.6488 89.7959 61.7102C89.7959 60.5898 90.2116 59.6731 90.8703 58.9602C90.7664 58.7056 90.4023 57.6529 90.9744 56.244C90.9744 56.244 91.8584 55.9723 93.8514 57.2965C94.7047 57.072 95.5847 56.9578 96.4687 56.9569C97.3526 56.9569 98.2537 57.0758 99.0858 57.2965C101.079 55.9723 101.963 56.244 101.963 56.244C102.535 57.6529 102.171 58.7056 102.067 58.9602C102.743 59.6731 103.142 60.5898 103.142 61.7102C103.142 65.6488 100.698 66.5144 98.3579 66.7692C98.7393 67.0917 99.0684 67.7027 99.0684 68.6704C99.0684 70.0454 99.0513 71.149 99.0513 71.4883C99.0513 71.76 99.242 72.0827 99.7619 71.9808C103.922 70.6225 106.92 66.786 106.92 62.2535C106.937 56.5833 102.24 52 96.4687 52Z" fill="#24292F"/>
</g>
<path d="M114.742 103.234C114.742 104.139 114.086 104.425 113.28 104.425H111.166V101.945H113.322C114.194 101.95 114.742 102.311 114.742 103.234ZM114.381 99.3766C114.381 98.5469 113.739 98.35 113.027 98.35H111.17V100.45H113.172C113.88 100.45 114.381 100.141 114.381 99.3766ZM120.583 100.464C119.725 100.464 119.153 100.998 119.097 101.856H122.013C121.933 100.989 121.483 100.464 120.583 100.464ZM127 93.25V109.75C127 110.992 125.992 112 124.75 112H108.25C107.008 112 106 110.992 106 109.75V93.25C106 92.0078 107.008 91 108.25 91H124.75C125.992 91 127 92.0078 127 93.25ZM118.736 98.1719H122.383V97.2859H118.736V98.1719ZM116.72 103.342C116.72 102.212 116.186 101.237 115.08 100.923C115.886 100.539 116.308 100.094 116.308 99.1891C116.308 97.3984 114.972 96.9625 113.43 96.9625H109.188V105.963H113.552C115.188 105.953 116.72 105.17 116.72 103.342ZM123.812 102.648C123.812 100.722 122.683 99.1141 120.644 99.1141C118.656 99.1141 117.311 100.605 117.311 102.564C117.311 104.594 118.591 105.986 120.644 105.986C122.2 105.986 123.208 105.287 123.695 103.792H122.116C121.942 104.35 121.244 104.641 120.7 104.641C119.65 104.641 119.102 104.027 119.102 102.986H123.798C123.803 102.878 123.812 102.761 123.812 102.648Z" fill="black"/>
<path d="M151.676 91.8564V92.2909C151.103 92.3927 150.669 92.5728 150.375 92.8311C149.953 93.2147 149.456 93.8018 149.129 94.5925L142.49 108.143H142.048L135.383 94.4163C135.073 93.7118 134.651 93.2812 134.524 93.1246C134.325 92.882 134.08 92.6921 133.789 92.5551C133.499 92.4181 133.107 92.3301 132.613 92.2909V91.8564H139.099V92.2909C138.35 92.3614 137.994 92.4866 137.771 92.6667C137.548 92.8467 137.437 93.0777 137.437 93.3595C137.437 93.7509 137.62 94.3615 137.986 95.1913L142.908 104.527L147.721 95.3088C148.095 94.4007 148.405 93.7705 148.405 93.4182C148.405 93.1912 148.29 92.974 148.059 92.7665C147.828 92.5591 147.567 92.4123 147.018 92.3261C146.978 92.3183 146.91 92.3066 146.815 92.2909V91.8564H151.676Z" fill="black"/>
<path d="M157.386 91.8564V92.2909C156.813 92.3927 156.379 92.5728 156.085 92.8311C155.663 93.2147 155.166 93.8018 154.839 94.5925L149.013 108.143H148.571L142.414 94.4163C142.103 93.7118 141.681 93.2812 141.554 93.1246C141.355 92.882 141.11 92.6921 140.82 92.5551C140.529 92.4181 140.266 92.3301 139.772 92.2909V91.8564H146.129V92.2909C145.381 92.3614 145.024 92.4866 144.801 92.6667C144.578 92.8467 144.467 93.0777 144.467 93.3595C144.467 93.7509 144.65 94.3615 145.016 95.1913L149.431 104.527L153.431 95.3088C153.805 94.4007 154.115 93.7705 154.115 93.4182C154.115 93.1912 154 92.974 153.769 92.7665C153.538 92.5591 153.148 92.4123 152.599 92.3261C152.559 92.3183 152.491 92.3066 152.396 92.2909V91.8564H157.386Z" fill="black"/>
<g clip-path="url(#clip4_23_1004)">
<path d="M175.5 71.2101C175.5 71.5164 175.247 71.7673 174.939 71.7673H163.061C162.753 71.7673 162.5 71.5164 162.5 71.2101V59.5572C162.5 59.2509 162.753 59 163.061 59H174.939C175.248 59 175.5 59.2509 175.5 59.5572V71.2101H175.5Z" fill="#0C9D58"/>
<path opacity="0.2" d="M175.5 61.9958L171.048 61.4229L175.5 62.6171V61.9958Z" fill="#004D40"/>
<path opacity="0.2" d="M169.214 59.6076L162.473 62.6177L169.924 59.9058V59.8984C169.793 59.6176 169.474 59.4866 169.214 59.6076Z" fill="#004D40"/>
<path opacity="0.2" d="M174.939 59H163.061C162.753 59 162.5 59.2509 162.5 59.5572V59.6821C162.5 59.3758 162.753 59.1249 163.061 59.1249H174.939C175.248 59.1249 175.5 59.3758 175.5 59.6821V59.5572C175.5 59.2509 175.248 59 174.939 59Z" fill="white"/>
<path d="M165.383 70.8521C165.302 71.1513 165.462 71.4566 165.739 71.5305L176.74 74.4893C177.016 74.5631 177.307 74.3788 177.387 74.0795L179.979 64.4074C180.059 64.1081 179.899 63.8028 179.623 63.729L168.622 60.7702C168.346 60.6963 168.054 60.8807 167.974 61.1799L165.383 70.8521Z" fill="#EA4335"/>
<path opacity="0.2" d="M177.5 67.8599L178.079 71.3751L177.5 73.5356V67.8599Z" fill="#3E2723"/>
<path opacity="0.2" d="M171.1 61.5659L171.619 61.7053L171.94 63.8748L171.1 61.5659Z" fill="#3E2723"/>
<path opacity="0.2" d="M179.623 63.729L168.622 60.7702C168.346 60.6963 168.054 60.8807 167.975 61.1799L165.383 70.8521C165.379 70.8682 165.378 70.8847 165.375 70.9008L167.947 61.3018C168.027 61.0026 168.318 60.8182 168.594 60.8921L179.596 63.8509C179.856 63.9207 180.011 64.1978 179.96 64.4809L179.98 64.4073C180.06 64.1081 179.899 63.8028 179.623 63.729Z" fill="white"/>
<path d="M174.046 69.6607C174.152 69.9519 174.019 70.2699 173.751 70.3676L162.142 74.5928C161.873 74.6906 161.567 74.5324 161.461 74.2412L158.036 64.8317C157.931 64.5405 158.064 64.2224 158.332 64.1247L169.941 59.8995C170.209 59.8018 170.516 59.96 170.622 60.2511L174.046 69.6607Z" fill="#FFC107"/>
<path opacity="0.2" d="M158.081 64.9505C157.975 64.6594 158.108 64.3413 158.376 64.2436L169.985 60.0181C170.251 59.9213 170.553 60.0755 170.662 60.3606L170.622 60.2511C170.516 59.96 170.209 59.8018 169.941 59.8995L158.332 64.1251C158.063 64.2228 157.93 64.5408 158.037 64.832L161.461 74.2416C161.462 74.2446 161.464 74.2473 161.466 74.2506L158.081 64.9505Z" fill="white"/>
<path d="M177.5 76.4374C177.5 76.7467 177.247 77 176.938 77H161.063C160.753 77 160.5 76.7467 160.5 76.4374V64.4375C160.5 64.1282 160.753 63.875 161.063 63.875H176.938C177.247 63.875 177.5 64.1282 177.5 64.4375V76.4374Z" fill="#4285F4"/>
<path d="M174.469 68.625H169.719V67.375H174.469C174.607 67.375 174.719 67.4868 174.719 67.6249V68.3748C174.719 68.5128 174.607 68.625 174.469 68.625ZM174.469 73.3748H169.719V72.1248H174.469C174.607 72.1248 174.719 72.2366 174.719 72.3746V73.1246C174.719 73.2629 174.607 73.3748 174.469 73.3748ZM175.219 70.9997H169.719V69.7497H175.219C175.357 69.7497 175.469 69.8616 175.469 69.9996V70.7495C175.469 70.8879 175.357 70.9997 175.219 70.9997Z" fill="white"/>
<path opacity="0.2" d="M176.938 76.875H161.063C160.753 76.875 160.5 76.6218 160.5 76.3125V76.4374C160.5 76.7467 160.753 77 161.063 77H176.938C177.247 77 177.5 76.7467 177.5 76.4374V76.3125C177.5 76.6218 177.247 76.875 176.938 76.875Z" fill="#1A237E"/>
<path opacity="0.2" d="M161.063 63.9999H176.938C177.247 63.9999 177.5 64.2532 177.5 64.5625V64.4375C177.5 64.1282 177.247 63.875 176.938 63.875H161.063C160.753 63.875 160.5 64.1282 160.5 64.4375V64.5625C160.5 64.2532 160.753 63.9999 161.063 63.9999Z" fill="white"/>
<path d="M165.469 69.875V71.0024H167.086C166.953 71.6892 166.349 72.1872 165.469 72.1872C164.487 72.1872 163.69 71.3567 163.69 70.3747C163.69 69.3927 164.487 68.5622 165.469 68.5622C165.911 68.5622 166.307 68.7143 166.62 69.0122V69.0129L167.476 68.1568C166.956 67.6722 166.278 67.375 165.468 67.375C163.812 67.375 162.468 68.718 162.468 70.3751C162.468 72.0321 163.811 73.3751 165.468 73.3751C167.201 73.3751 168.341 72.157 168.341 70.4432C168.341 70.2468 168.323 70.0574 168.293 69.875H165.469Z" fill="white"/>
<g opacity="0.2">
<path d="M165.5 71.0024V71.1274H167.088C167.099 71.0864 167.109 71.0448 167.118 71.0024H165.5Z" fill="#1A237E"/>
<path d="M165.5 73.375C163.864 73.375 162.535 72.0656 162.502 70.4374C162.501 70.4582 162.5 70.4791 162.5 70.4999C162.5 72.1569 163.843 73.4999 165.5 73.4999C167.233 73.4999 168.372 72.2819 168.372 70.5681C168.372 70.5543 168.371 70.5415 168.371 70.5278C168.333 72.1969 167.204 73.375 165.5 73.375ZM166.651 69.0125C166.338 68.7149 165.942 68.5624 165.5 68.5624C164.518 68.5624 163.722 69.393 163.722 70.375C163.722 70.3961 163.724 70.4166 163.725 70.4374C163.758 69.483 164.539 68.6874 165.5 68.6874C165.942 68.6874 166.338 68.8395 166.651 69.1374V69.1381L167.569 68.2195C167.548 68.1994 167.524 68.1816 167.502 68.1621L166.651 69.0131L166.651 69.0125Z" fill="#1A237E"/>
</g>
<path opacity="0.2" d="M174.719 68.4999V68.375C174.719 68.513 174.607 68.6249 174.469 68.6249H169.719V68.7498H174.469C174.607 68.7501 174.719 68.6383 174.719 68.4999ZM174.469 73.375H169.719V73.4999H174.469C174.607 73.4999 174.719 73.3881 174.719 73.25V73.1251C174.719 73.2631 174.607 73.375 174.469 73.375ZM175.219 70.9999H169.719V71.1249H175.219C175.357 71.1249 175.469 71.013 175.469 70.875V70.7501C175.469 70.8881 175.357 70.9999 175.219 70.9999Z" fill="#1A237E"/>
<path d="M179.624 63.729L175.501 62.62V59.5572C175.501 59.2509 175.248 59 174.939 59H163.061C162.753 59 162.5 59.2509 162.5 59.5572V62.6079L158.333 64.1249C158.064 64.2226 157.931 64.5407 158.037 64.8319L160.5 71.6004V76.4375C160.5 76.7468 160.754 77 161.063 77H176.938C177.247 77 177.5 76.7468 177.5 76.4375V73.6604L179.98 64.4074C180.06 64.1081 179.9 63.8028 179.624 63.729Z" fill="url(#paint2_radial_23_1004)"/>
</g>
<g clip-path="url(#clip5_23_1004)">
<path d="M146 63C152.075 63 157 58.0751 157 52C157 45.9249 152.075 41 146 41C139.925 41 135 45.9249 135 52C135 58.0751 139.925 63 146 63Z" fill="#EA4C89"/>
<path d="M146 62.9312V62.8625C143.009 62.8625 140.259 61.625 138.3 59.6656C136.341 57.7406 135.103 54.9906 135.103 52C135.103 49.0094 136.341 46.2594 138.3 44.3C140.294 42.3406 143.009 41.1031 146 41.1031C148.991 41.1031 151.741 42.3406 153.7 44.3C155.659 46.2594 156.897 49.0094 156.897 52C156.897 54.9906 155.659 57.7406 153.7 59.7C151.741 61.6594 148.991 62.8969 146 62.8969V62.9312V63C152.05 63 157 58.05 157 52C157 45.95 152.05 41 146 41C139.95 41 135 45.95 135 52C135 58.05 139.95 63 146 63V62.9312ZM155.247 53.5125V53.4438C155.006 53.375 153.425 52.8937 151.362 52.8937C150.744 52.8937 150.091 52.9281 149.403 53.0312H149.334L149.369 53.1C150.606 56.4688 151.087 59.1844 151.191 59.7687V59.8375L151.259 59.8031C153.356 58.3938 154.869 56.125 155.281 53.5125V53.4781H155.247V53.5125H155.178C154.766 56.0906 153.287 58.325 151.191 59.7344L151.225 59.7687H151.294C151.191 59.1844 150.709 56.4688 149.472 53.1L149.403 53.1344V53.2031C150.091 53.1 150.744 53.0656 151.328 53.0656C153.356 53.0656 154.938 53.5469 155.178 53.6156L155.247 53.5125ZM149.644 60.6281H149.712C149.575 59.8031 149.025 56.95 147.719 53.5125L147.684 53.4781H147.65C147.616 53.4781 147.616 53.4781 147.581 53.5125C142.287 55.3688 140.397 59.0125 140.225 59.3906L140.191 59.425L140.225 59.4594C141.806 60.6969 143.834 61.4531 146 61.4531C147.306 61.4531 148.544 61.1781 149.678 60.6969H149.712V60.6625L149.644 60.6281L149.609 60.5938C148.509 61.075 147.272 61.3156 145.966 61.3156C143.8 61.3156 141.841 60.5938 140.259 59.3563L140.225 59.3906L140.259 59.425C140.431 59.0812 142.322 55.4375 147.547 53.6156C147.581 53.6156 147.581 53.6156 147.616 53.5812L147.581 53.5125L147.547 53.5469C148.853 56.95 149.403 59.8031 149.541 60.6281H149.644ZM139.056 58.2563L139.091 58.2906C139.297 57.9469 141.875 53.6844 146.653 52.1375C146.791 52.1031 146.894 52.0687 147.031 52.0344L147.1 52L147.066 51.9312C146.825 51.4156 146.584 50.8656 146.309 50.35L146.275 50.3156H146.241C142.116 51.5531 138.094 51.6562 136.959 51.6562C136.822 51.6562 136.719 51.6562 136.65 51.6562H136.581V51.725C136.581 51.8281 136.581 51.9312 136.581 52C136.581 54.4062 137.509 56.6062 138.988 58.2906L139.022 58.3594L139.056 58.2906V58.2563L139.091 58.2219C137.612 56.5719 136.719 54.4062 136.719 52C136.719 51.8969 136.719 51.7938 136.719 51.725H136.65V51.7937C136.684 51.7937 136.787 51.7937 136.959 51.7937C138.128 51.7937 142.15 51.6906 146.275 50.4531V50.3844L146.241 50.4187C146.516 50.9344 146.756 51.4844 146.997 52H147.031V51.9312C146.894 51.9656 146.791 52 146.653 52.0344C141.806 53.6156 139.228 57.8437 139.022 58.2219L139.056 58.2563ZM136.856 50.1094V50.1781C136.891 50.1781 136.959 50.1781 137.028 50.1781C137.888 50.1781 141.497 50.1094 145.519 49.0437L145.587 49.0094L145.553 48.9406C144.006 46.1906 142.322 43.8531 142.081 43.5438L142.047 43.5094L142.012 43.5438C139.366 44.7469 137.406 47.1531 136.787 50.075V50.1438H136.856V50.1094H136.925C137.544 47.2219 139.469 44.8156 142.081 43.6125L142.047 43.5781L142.012 43.6125C142.253 43.9562 143.938 46.2594 145.484 49.0094L145.519 48.975V48.9062C141.497 49.9719 137.922 50.0406 137.062 50.0406C136.994 50.0406 136.925 50.0406 136.891 50.0406L136.856 50.1094ZM143.8 42.925L143.766 42.9594C144.006 43.3031 145.725 45.6063 147.237 48.425L147.272 48.4594H147.306C150.641 47.2219 152.05 45.2969 152.222 45.0563L152.256 45.0219L152.222 44.9875C150.572 43.5094 148.406 42.6156 146 42.6156C145.244 42.6156 144.488 42.7188 143.8 42.8906L143.731 42.925L143.766 42.9938L143.8 42.925V42.9938C144.522 42.8219 145.244 42.7188 146 42.7188C148.372 42.7188 150.503 43.6125 152.153 45.0563L152.188 45.0219L152.153 44.9875C151.981 45.2281 150.606 47.1187 147.272 48.3562L147.306 48.425L147.341 48.3906C145.794 45.5719 144.109 43.2687 143.834 42.925H143.8ZM153.253 46.0875L153.219 46.0531C153.012 46.3281 151.466 48.3219 148.028 49.7312L147.959 49.7656L147.994 49.8344C148.2 50.2813 148.406 50.7281 148.612 51.175C148.681 51.3469 148.75 51.4844 148.819 51.6562V51.6906H148.853C149.575 51.5875 150.297 51.5531 150.984 51.5531C153.219 51.5531 155.109 51.9312 155.316 51.9656H155.384V51.8969C155.35 49.6625 154.559 47.6344 153.253 46.0531L153.219 46.0188L153.184 46.0875H153.253L153.219 46.1219C154.525 47.7031 155.281 49.7313 155.316 51.8969H155.384V51.8281C155.144 51.7937 153.287 51.4156 151.019 51.3813C150.331 51.3813 149.575 51.4156 148.853 51.5188V51.5875L148.888 51.5531C148.819 51.3813 148.75 51.2437 148.681 51.0719C148.475 50.625 148.269 50.1781 148.062 49.7312L148.028 49.7656L148.062 49.8C151.534 48.3906 153.116 46.3625 153.322 46.0875H153.253Z" fill="#C32361"/>
<path fill-rule="evenodd" clip-rule="evenodd" d="M146 62.9313C139.95 62.9313 135.069 58.0501 135.069 52.0001C135.069 45.9501 139.95 41.0688 146 41.0688C152.05 41.0688 156.931 45.9845 156.931 52.0001C156.931 58.0501 152.05 62.9313 146 62.9313ZM155.247 53.5126C154.938 53.4095 152.359 52.6532 149.438 53.1001C150.675 56.4688 151.156 59.1845 151.259 59.7688C153.322 58.3595 154.8 56.0907 155.247 53.5126ZM149.644 60.6282C149.506 59.8032 148.956 56.9501 147.65 53.547C147.616 53.547 147.616 53.547 147.581 53.5813C142.322 55.4032 140.431 59.0813 140.259 59.4251C141.841 60.6626 143.834 61.3845 146 61.3845C147.306 61.3501 148.544 61.1095 149.644 60.6282ZM139.056 58.2563C139.263 57.8782 141.841 53.6501 146.653 52.1032C146.791 52.0688 146.894 52.0345 147.031 52.0001C146.791 51.4845 146.55 50.9345 146.275 50.4188C141.6 51.7938 137.063 51.7251 136.65 51.7251C136.65 51.8282 136.65 51.9313 136.65 52.0001C136.65 54.4063 137.578 56.6063 139.056 58.2563ZM136.856 50.1095C137.269 50.1095 141.119 50.1438 145.484 48.9751C143.938 46.2251 142.253 43.922 142.013 43.5782C139.4 44.7813 137.441 47.1876 136.856 50.1095ZM143.8 42.9251C144.075 43.2688 145.759 45.572 147.272 48.3907C150.606 47.1532 152.016 45.2626 152.188 45.022C150.538 43.5438 148.372 42.6501 146 42.6501C145.244 42.6501 144.522 42.7532 143.8 42.9251ZM153.253 46.0876C153.047 46.3626 151.5 48.3563 148.028 49.7657C148.234 50.2126 148.441 50.6595 148.647 51.1063C148.716 51.2782 148.784 51.4157 148.853 51.5876C151.947 51.2095 155.041 51.8282 155.35 51.897C155.316 49.7313 154.525 47.7032 153.253 46.0876Z" fill="#C32361"/>
</g>
<path d="M126.332 63.5775V57.8236H128.25V65.4956H111V57.8236H112.918V63.5775H126.332Z" fill="#BCBBBC"/>
<path d="M114.838 61.6592H124.427V59.7413H114.838V61.6592ZM123.432 43.9999L121.893 45.1445L127.616 52.8388L129.155 51.6943L123.432 43.9999ZM118.676 48.5362L126.044 54.6729L127.271 53.1992L119.903 47.0624L118.676 48.5362ZM116.27 52.8008L124.963 56.8492L125.772 55.1107L117.08 51.0622L116.27 52.8008ZM115.028 57.2942L124.413 59.2665L124.807 57.3896L115.423 55.4173L115.028 57.2942Z" fill="#F48023"/>
<defs>
<radialGradient id="paint0_radial_23_1004" cx="0" cy="0" r="1" gradientUnits="userSpaceOnUse" gradientTransform="translate(81.7305 102.705) rotate(-90) scale(24.3994 22.6988)">
<stop stop-color="#FFDD55"/>
<stop offset="0.1" stop-color="#FFDD55"/>
<stop offset="0.5" stop-color="#FF543E"/>
<stop offset="1" stop-color="#C837AB"/>
</radialGradient>
<radialGradient id="paint1_radial_23_1004" cx="0" cy="0" r="1" gradientUnits="userSpaceOnUse" gradientTransform="translate(71.0646 77.963) rotate(78.678) scale(10.9067 44.968)">
<stop stop-color="#3771C8"/>
<stop offset="0.128" stop-color="#3771C8"/>
<stop offset="1" stop-color="#6600FF" stop-opacity="0"/>
</radialGradient>
<radialGradient id="paint2_radial_23_1004" cx="0" cy="0" r="1" gradientUnits="userSpaceOnUse" gradientTransform="translate(162.959 60.4583) scale(21.3947 21.3949)">
<stop stop-color="white" stop-opacity="0.1"/>
<stop offset="1" stop-color="white" stop-opacity="0"/>
</radialGradient>
<clipPath id="clip0_23_1004">
<rect width="12" height="6" fill="white" transform="matrix(1 0 0 -1 137 80)"/>
</clipPath>
<clipPath id="clip1_23_1004">
<rect width="25" height="25" fill="white" transform="translate(75 76)"/>
</clipPath>
<clipPath id="clip2_23_1004">
<rect width="21" height="15" fill="white" transform="translate(109 71)"/>
</clipPath>
<clipPath id="clip3_23_1004">
<rect width="21" height="20" fill="white" transform="translate(86 52)"/>
</clipPath>
<clipPath id="clip4_23_1004">
<rect width="22" height="18" fill="white" transform="translate(158 59)"/>
</clipPath>
<clipPath id="clip5_23_1004">
<rect width="22" height="22" fill="white" transform="translate(135 41)"/>
</clipPath>
</defs>
</svg>
