<svg width="194" height="132" viewBox="0 0 194 132" fill="none" xmlns="http://www.w3.org/2000/svg">
<path d="M104.165 96.5345L110.084 86.3113C112.598 81.969 117.244 79.2941 122.273 79.2941H134.111C139.14 79.2941 143.786 81.969 146.3 86.3113L152.219 96.5345C154.734 100.877 154.734 106.227 152.219 110.569L146.3 120.792C143.786 125.134 139.14 127.809 134.111 127.809H122.273C117.244 127.809 112.598 125.134 110.084 120.792L104.165 110.569C101.651 106.227 101.651 100.877 104.165 96.5345Z" fill="#DFF0FA" stroke="#84BAD9"/>
<path d="M87.0984 44.7586C84.5163 40.299 84.5163 34.8044 87.0984 30.3448L97.582 12.2378C100.164 7.77823 104.937 5.03101 110.101 5.03101H131.068C136.232 5.03101 141.005 7.77823 143.587 12.2378L154.07 30.3448C156.652 34.8044 156.652 40.299 154.07 44.7586L143.587 62.8656C141.005 67.3252 136.232 70.0725 131.068 70.0725H110.101C104.937 70.0725 100.164 67.3252 97.582 62.8656L87.0984 44.7586Z" fill="#CAEFFB"/>
<path d="M103.836 110.759C101.254 106.299 101.254 100.805 103.836 96.3449L109.755 86.1217C112.337 81.6618 117.109 78.9148 122.273 78.9148H134.111C139.275 78.9148 144.048 81.6618 146.63 86.1217L152.549 96.3449C155.131 100.805 155.131 106.299 152.549 110.759L146.63 120.982C144.048 125.442 139.275 128.189 134.111 128.189H122.273C117.109 128.189 112.337 125.442 109.755 120.982L103.836 110.759Z" fill="#DFF0FA"/>
<path d="M122.855 80.4139C120.273 75.954 120.273 70.4597 122.855 66.0001L133.339 47.8931C135.921 43.4335 140.693 40.6862 145.858 40.6862H166.825C171.989 40.6862 176.761 43.4335 179.343 47.8931L189.827 66.0001C192.409 70.4597 192.409 75.954 189.827 80.4139L179.343 98.5206C176.761 102.98 171.989 105.727 166.825 105.727H145.858C140.693 105.727 135.921 102.98 133.339 98.5206L122.855 80.4139Z" fill="#B7DCFE"/>
<path d="M42.9727 101.655C40.3906 97.1952 40.3906 91.7013 42.9727 87.2413L53.4566 69.1344C56.0387 64.6747 60.8107 61.9275 65.975 61.9275H86.9424C92.1066 61.9275 96.879 64.6747 99.4611 69.1344L109.945 87.2413C112.527 91.7013 112.527 97.1952 109.945 101.655L99.4611 119.762C96.879 124.222 92.1066 126.969 86.9424 126.969H65.975C60.8107 126.969 56.0387 124.222 53.4566 119.762L42.9727 101.655Z" fill="#CAEFFB"/>
<path d="M90.1643 23.5173C92.7465 27.977 92.7465 33.4715 90.1643 37.9311L84.2454 48.1543C81.6633 52.6139 76.8909 55.3612 71.727 55.3612H59.8887C54.7244 55.3611 49.9525 52.6139 47.3704 48.1542L41.4512 37.9311C38.8691 33.4715 38.8691 27.977 41.4512 23.5173L47.3704 13.2942C49.9525 8.83451 54.7244 6.08728 59.8887 6.08728H71.727C76.8909 6.08728 81.6633 8.83451 84.2454 13.2942L90.1643 23.5173Z" fill="#DFF0FA"/>
<path d="M71.145 53.8621C73.7271 58.3217 73.7271 63.8162 71.145 68.2758L60.6611 86.3826C58.079 90.8425 53.307 93.5895 48.1428 93.5895H27.1751C22.0108 93.5895 17.2389 90.8425 14.6568 86.3826L4.17292 68.2758C1.5908 63.8162 1.5908 58.3217 4.17292 53.8621L14.6568 35.7551C17.2389 31.2955 22.0108 28.5482 27.1751 28.5482H48.1428C53.307 28.5482 58.079 31.2955 60.6611 35.7551L71.145 53.8621Z" fill="#B7DCFE"/>
<path d="M147.859 72.2586L128.816 105.148C126.573 109.021 122.429 111.406 117.944 111.406H79.8596C75.3746 111.406 71.2305 109.021 68.9881 105.148L49.9454 72.2586C47.7031 68.3858 47.7031 63.6142 49.9454 59.7413L68.9881 26.8524C71.2305 22.9795 75.3746 20.5938 79.8596 20.5938H117.944C122.429 20.5938 126.573 22.9795 128.816 26.8524L147.859 59.7413C150.101 63.6142 150.101 68.3858 147.859 72.2586Z" fill="#EEF7FF" stroke="white" stroke-width="5"/>
<path d="M97.3514 93.4377C97.2004 93.1351 97.0065 92.8012 96.9205 92.6956C96.7367 92.4699 96.3511 92.2014 96.0479 92.088L95.8327 92.0075L86.9207 91.9987L78.0088 91.9899L78.0179 91.187L78.027 90.384L78.5348 90.2404C80.1441 89.7853 82.2423 89.3002 83.9848 88.9804C87.6247 88.3124 90.655 88.1148 93.0738 88.3876C94.4411 88.5418 96.7381 89.1408 99.7679 90.1333L100.487 90.369V92.1784V93.9878H99.0565H97.6258L97.3514 93.4377Z" fill="white"/>
<path d="M72.5 82.9707C71.0369 82.155 69.5 81.5612 69.5 77.5V74.5L71.0532 75.7786C72.0819 76.4842 72.7655 76.5011 100.306 76.5025C128.172 76.5038 128.521 76.4949 129.753 75.752L131.5 74.5V77.5C131.386 80.0386 130.97 80.9091 130 82L128.5 83H100.853C75.6832 83.078 73.4694 83.5111 72.5 82.9707Z" fill="#E6E6E6"/>
<path d="M101.503 92.1831V90.3783L102.527 90.0682C104.703 89.409 106.511 88.9474 107.715 88.7431C110.165 88.3279 113.609 88.4964 117.768 89.2352C119.602 89.5609 121.927 90.0814 123.599 90.5404L123.98 90.645V91.3178V91.9906L115.17 91.9911C105.46 91.9917 106.169 91.9759 105.702 92.2019C105.548 92.2765 105.397 92.3922 105.206 92.5815C104.952 92.8343 104.912 92.8945 104.648 93.4207L104.363 93.9876L102.933 93.9877L101.503 93.9878V92.1831Z" fill="white"/>
<path d="M127 44.5H74C71.5147 44.5 69.5 46.5147 69.5 49V72C69.5 74.4853 71.5147 76.5 74 76.5H127C129.485 76.5 131.5 74.4853 131.5 72V49C131.5 46.5147 129.485 44.5 127 44.5Z" fill="#96EAFF" stroke="black"/>
<path d="M97.5 89C95.8335 88.4849 93.567 88.0669 93.5001 88C93.4333 87.9332 93.7941 86.3179 94 85.5L94.5 83.5H101H107.258L108 85.5C108.211 86.4113 108.547 87.9691 108.5 88C108.403 88.0633 102.491 89.2857 101.5 89.5C101.146 89.5764 99.1666 89.515 97.5 89Z" fill="#E6E6E6"/>
<path d="M127 44.5H74C71.5147 44.5 69.5 46.5147 69.5 49V79C69.5 81.4853 71.5147 83.5 74 83.5H127C129.485 83.5 131.5 81.4853 131.5 79V49C131.5 46.5147 129.485 44.5 127 44.5Z" stroke="black"/>
<path d="M93.5149 87.8787L94.5149 83.8787" stroke="black"/>
<path d="M108.485 87.8787L107.485 83.8787" stroke="black"/>
<path d="M114.5 35.5H87.5V69.5H114.5V35.5Z" fill="white" stroke="black"/>
<path d="M92.2102 45.9318V45.25L97.6989 42.4545V43.5455L93.4886 45.5739L93.5227 45.5057V45.6761L93.4886 45.608L97.6989 47.6364V48.7273L92.2102 45.9318ZM102.916 39.8636L100.103 50.3125H99.1829L101.995 39.8636H102.916ZM109.886 45.9318L104.398 48.7273V47.6364L108.608 45.608L108.574 45.6761V45.5057L108.608 45.5739L104.398 43.5455V42.4545L109.886 45.25V45.9318Z" fill="black"/>
<path d="M92 62.5H110" stroke="black"/>
<path d="M92 54.5H110" stroke="black"/>
<path d="M92 58.5H110" stroke="black"/>
<path d="M77.5 92V90C77.5 90 87.6116 86.8515 94 88C96.6139 88.4699 101 90 101 90" stroke="black"/>
<path d="M124.5 92.2521V90.2521C124.5 90.2521 113.888 87.1036 107.5 88.2521C104.886 88.722 101 90 101 90" stroke="black"/>
<path d="M126.5 96V94C126.5 93.1716 125.828 92.5 125 92.5H106.618C106.05 92.5 105.53 92.821 105.276 93.3292L104.829 94.2236C104.744 94.393 104.571 94.5 104.382 94.5H97.618C97.4286 94.5 97.2555 94.393 97.1708 94.2236L96.7236 93.3292C96.4695 92.821 95.9501 92.5 95.382 92.5H77C76.1716 92.5 75.5 93.1716 75.5 94V96C75.5 96.8284 76.1716 97.5 77 97.5H125C125.828 97.5 126.5 96.8284 126.5 96Z" fill="#89BFFF" stroke="black"/>
<path d="M101 90V94.5" stroke="black"/>
</svg>
