<svg width="255" height="174" viewBox="0 0 255 174" fill="none" xmlns="http://www.w3.org/2000/svg">
<path d="M136.918 127.25L144.698 113.774C148.003 108.05 154.11 104.524 160.72 104.524L176.28 104.524C182.89 104.524 188.997 108.05 192.302 113.774L200.082 127.25C203.387 132.974 203.387 140.026 200.082 145.75L192.302 159.226C188.997 164.95 182.89 168.476 176.28 168.476L160.72 168.476C154.11 168.476 148.003 164.95 144.698 159.226L136.918 145.75C133.613 140.026 133.613 132.974 136.918 127.25Z" fill="#DFF0FA" stroke="#84BAD9"/>
<path d="M114.485 59C111.091 53.1214 111.091 45.8786 114.485 40L128.265 16.1317C131.659 10.2531 137.932 6.63174 144.72 6.63174L172.28 6.63174C179.068 6.63174 185.341 10.2531 188.735 16.1317L202.515 40C205.909 45.8786 205.909 53.1214 202.515 59L188.735 82.8683C185.341 88.7469 179.068 92.3683 172.28 92.3683L144.72 92.3683C137.932 92.3683 131.659 88.7469 128.265 82.8683L114.485 59Z" fill="#CAEFFB"/>
<path d="M136.485 146C133.091 140.121 133.091 132.879 136.485 127L144.265 113.524C147.659 107.645 153.932 104.024 160.72 104.024L176.28 104.024C183.068 104.024 189.341 107.645 192.735 113.524L200.515 127C203.909 132.879 203.909 140.121 200.515 146L192.735 159.476C189.341 165.355 183.068 168.976 176.28 168.976L160.72 168.976C153.932 168.976 147.659 165.355 144.265 159.476L136.485 146Z" fill="#DFF0FA"/>
<path d="M161.485 106C158.091 100.121 158.091 92.8786 161.485 87L175.265 63.1317C178.659 57.2531 184.932 53.6317 191.72 53.6317L219.28 53.6317C226.068 53.6317 232.341 57.2531 235.735 63.1317L249.515 87C252.909 92.8786 252.909 100.121 249.515 106L235.735 129.868C232.341 135.747 226.068 139.368 219.28 139.368L191.72 139.368C184.932 139.368 178.659 135.747 175.265 129.868L161.485 106Z" fill="#B7DCFE"/>
<path d="M56.4848 134C53.0908 128.121 53.0908 120.879 56.4848 115L70.2652 91.1317C73.6592 85.2531 79.9316 81.6317 86.7197 81.6317L114.28 81.6317C121.068 81.6317 127.341 85.2531 130.735 91.1317L144.515 115C147.909 120.879 147.909 128.121 144.515 134L130.735 157.868C127.341 163.747 121.068 167.368 114.28 167.368L86.7197 167.368C79.9316 167.368 73.6592 163.747 70.2652 157.868L56.4848 134Z" fill="#CAEFFB"/>
<path d="M118.515 31C121.909 36.8786 121.909 44.1214 118.515 50L110.735 63.476C107.341 69.3546 101.068 72.976 94.2803 72.976L78.7197 72.976C71.9316 72.9759 65.6592 69.3546 62.2652 63.4759L54.4848 50C51.0908 44.1214 51.0908 36.8786 54.4848 31L62.2652 17.524C65.6592 11.6454 71.9316 8.02405 78.7197 8.02405L94.2803 8.02405C101.068 8.02405 107.341 11.6454 110.735 17.524L118.515 31Z" fill="#DFF0FA"/>
<path d="M93.5152 71C96.9092 76.8786 96.9092 84.1214 93.5152 90L79.7348 113.868C76.3408 119.747 70.0684 123.368 63.2803 123.368L35.7197 123.368C28.9316 123.368 22.6592 119.747 19.2652 113.868L5.48483 90C2.09081 84.1214 2.09081 76.8786 5.48483 71L19.2652 47.1317C22.6592 41.2531 28.9316 37.6317 35.7197 37.6317L63.2803 37.6317C70.0684 37.6317 76.3408 41.2531 79.7348 47.1317L93.5152 71Z" fill="#B7DCFE"/>
<path d="M194.35 95.25L169.32 138.604C166.372 143.709 160.925 146.854 155.03 146.854L104.97 146.854C99.0748 146.854 93.6277 143.709 90.6802 138.604L65.6499 95.25C62.7025 90.1449 62.7025 83.8551 65.6499 78.75L90.6802 35.3962C93.6277 30.291 99.0748 27.1462 104.97 27.1462L155.03 27.1462C160.925 27.1462 166.372 30.2911 169.32 35.3962L194.35 78.75C197.298 83.8551 197.298 90.1449 194.35 95.25Z" fill="#EEF7FF" stroke="white" stroke-width="5"/>
<path d="M129.801 113.045L94.425 104.392V75.6177L129.801 84.0317L165.176 75.6177V104.646L129.801 113.045Z" fill="#E0F3FB" stroke="black"/>
<path d="M94.5444 81.3822L89 80.1074V111.119L130.012 120.893L171 111.034V80.1074L165.372 81.3822" stroke="black"/>
<path d="M89 110.21V116.219L130.012 125.992L171 116.134V110.355" stroke="black"/>
<path d="M129.958 83.98V126.001" stroke="black"/>
<path d="M137.192 95.1167V87.4113L158.87 82.145V89.8505L137.192 95.1167Z" fill="#65C3EB" stroke="black"/>
<path d="M100.615 83.0508L123.021 88.0967" stroke="black" stroke-width="2" stroke-linecap="round"/>
<path d="M100.515 88.9214L122.921 94.394" stroke="black" stroke-width="2" stroke-linecap="round"/>
<path d="M100.433 94.9385L122.584 100.581" stroke="black" stroke-width="2" stroke-linecap="round"/>
<path d="M145.307 59.0992C145.307 65.8912 140.782 71.6357 134.557 73.5335C133.139 73.9658 129.966 81.1762 129.966 81.1762C129.966 81.1762 126.783 73.9302 125.275 73.4346C119.212 71.4425 114.838 65.7771 114.838 59.0992C114.838 50.7602 121.658 44 130.072 44C138.486 44 145.307 50.7602 145.307 59.0992Z" stroke="black" stroke-linecap="round"/>
<path d="M131.781 61.72C134.201 61.72 136.164 59.7751 136.164 57.3759C136.164 54.9767 134.201 53.0317 131.781 53.0317C129.36 53.0317 127.398 54.9767 127.398 57.3759C127.398 59.7751 129.36 61.72 131.781 61.72Z" stroke="black" stroke-linecap="round"/>
<path d="M128.467 60.3613L123.81 64.9772" stroke="black"/>
</svg>
