<svg width="194" height="132" viewBox="0 0 194 132" fill="none" xmlns="http://www.w3.org/2000/svg">
<path d="M104.165 96.5345L110.084 86.3113C112.598 81.969 117.244 79.2941 122.273 79.2941H134.111C139.14 79.2941 143.786 81.969 146.3 86.3113L152.219 96.5345C154.734 100.877 154.734 106.227 152.219 110.569L146.3 120.792C143.786 125.134 139.14 127.809 134.111 127.809H122.273C117.244 127.809 112.598 125.134 110.084 120.792L104.165 110.569C101.651 106.227 101.651 100.877 104.165 96.5345Z" fill="#DFF0FA" stroke="#84BAD9"/>
<path d="M87.0984 44.7586C84.5163 40.299 84.5163 34.8045 87.0984 30.3449L97.582 12.2379C100.164 7.77824 104.937 5.03101 110.101 5.03101H131.068C136.232 5.03101 141.005 7.77824 143.587 12.2379L154.07 30.3449C156.652 34.8045 156.652 40.299 154.07 44.7586L143.587 62.8656C141.005 67.3253 136.232 70.0725 131.068 70.0725H110.101C104.937 70.0725 100.164 67.3253 97.582 62.8656L87.0984 44.7586Z" fill="#CAEFFB"/>
<path d="M103.836 110.759C101.254 106.299 101.254 100.805 103.836 96.3448L109.755 86.1216C112.337 81.6617 117.109 78.9147 122.273 78.9147H134.111C139.275 78.9147 144.048 81.6617 146.63 86.1216L152.549 96.3448C155.131 100.805 155.131 106.299 152.549 110.759L146.63 120.982C144.048 125.442 139.275 128.189 134.111 128.189H122.273C117.109 128.189 112.337 125.442 109.755 120.982L103.836 110.759Z" fill="#DFF0FA"/>
<path d="M122.855 80.4139C120.273 75.9539 120.273 70.4597 122.855 66.0001L133.339 47.8931C135.921 43.4335 140.693 40.6862 145.858 40.6862H166.825C171.989 40.6862 176.761 43.4335 179.343 47.8931L189.827 66.0001C192.409 70.4597 192.409 75.9539 189.827 80.4139L179.343 98.5206C176.761 102.98 171.989 105.727 166.825 105.727H145.858C140.693 105.727 135.921 102.98 133.339 98.5206L122.855 80.4139Z" fill="#B7DCFE"/>
<path d="M42.9727 101.655C40.3906 97.1952 40.3906 91.7013 42.9727 87.2414L53.4567 69.1344C56.0388 64.6748 60.8107 61.9275 65.975 61.9275H86.9424C92.1066 61.9275 96.879 64.6748 99.4611 69.1344L109.945 87.2414C112.527 91.7013 112.527 97.1952 109.945 101.655L99.4611 119.762C96.879 124.222 92.1066 126.969 86.9424 126.969H65.975C60.8107 126.969 56.0388 124.222 53.4567 119.762L42.9727 101.655Z" fill="#CAEFFB"/>
<path d="M90.1644 23.5172C92.7465 27.9768 92.7465 33.4714 90.1644 37.931L84.2455 48.1542C81.6634 52.6138 76.8909 55.3611 71.727 55.3611H59.8887C54.7244 55.361 49.9525 52.6138 47.3704 48.1541L41.4512 37.931C38.8691 33.4714 38.8691 27.9768 41.4512 23.5172L47.3704 13.294C49.9525 8.83439 54.7244 6.08716 59.8887 6.08716H71.727C76.8909 6.08716 81.6634 8.83439 84.2455 13.294L90.1644 23.5172Z" fill="#DFF0FA"/>
<path d="M71.1449 53.8621C73.727 58.3217 73.727 63.8163 71.1449 68.2759L60.661 86.3826C58.0789 90.8426 53.3069 93.5895 48.1427 93.5895H27.175C22.0107 93.5895 17.2388 90.8426 14.6567 86.3826L4.17277 68.2759C1.59065 63.8163 1.59065 58.3217 4.17277 53.8621L14.6567 35.7551C17.2388 31.2955 22.0107 28.5482 27.175 28.5482H48.1427C53.3069 28.5482 58.0789 31.2955 60.661 35.7551L71.1449 53.8621Z" fill="#B7DCFE"/>
<path d="M147.858 72.2586L128.816 105.148C126.573 109.021 122.429 111.406 117.944 111.406H79.8595C75.3746 111.406 71.2305 109.021 68.9881 105.148L49.9454 72.2586C47.7031 68.3857 47.7031 63.6142 49.9454 59.7413L68.9881 26.8522C71.2305 22.9793 75.3746 20.5936 79.8595 20.5936H117.944C122.429 20.5936 126.573 22.9794 128.816 26.8522L147.858 59.7413C150.101 63.6142 150.101 68.3857 147.858 72.2586Z" fill="#EEF7FF" stroke="white" stroke-width="5"/>
<path d="M106 70.5H121C125.142 70.5 128.5 73.8579 128.5 78V87.7576C128.5 91.8997 125.142 95.2576 121 95.2576H119.456C118.268 95.2576 117.103 95.5831 116.087 96.1988L110.837 99.3807C110.708 99.4587 110.56 99.5 110.409 99.5C109.878 99.5 109.485 99.0042 109.607 98.4868L110.013 96.7641C110.195 95.9948 109.611 95.2576 108.821 95.2576H107H106C101.858 95.2576 98.5 91.8997 98.5 87.7576V78C98.5 73.8579 101.858 70.5 106 70.5Z" fill="#52A9FA" stroke="black"/>
<path d="M88 47.5H73C68.8579 47.5 65.5 50.8579 65.5 55V69C65.5 73.1421 68.8579 76.5 73 76.5H74.2567C75.6115 76.5 76.9324 76.9233 78.0348 77.7107L83.1247 81.3464C83.2646 81.4463 83.4322 81.5 83.604 81.5C84.1244 81.5 84.5147 81.0239 84.4126 80.5137L83.9903 78.4019C83.7935 77.418 84.5461 76.5 85.5495 76.5H87H88C92.1421 76.5 95.5 73.1421 95.5 69V55C95.5 50.8579 92.1421 47.5 88 47.5Z" fill="#30CCEF" stroke="black"/>
<path d="M108 36.5H118C122.142 36.5 125.5 39.8579 125.5 44V53.3135C125.5 57.2323 122.323 60.4091 118.404 60.4091C117.145 60.4091 115.917 60.7991 114.888 61.5255L110.875 64.3592C110.746 64.4508 110.591 64.5 110.432 64.5C109.946 64.5 109.582 64.055 109.679 63.5789L110.027 61.8554C110.178 61.1078 109.607 60.4091 108.844 60.4091H107.621C103.688 60.4091 100.5 57.2211 100.5 53.2884V44C100.5 39.8579 103.858 36.5 108 36.5Z" fill="#66C3D8" stroke="black"/>
<mask id="mask0_14_251" style="mask-type:luminance" maskUnits="userSpaceOnUse" x="72" y="55" width="18" height="15">
<path d="M90 55H72V70H90V55Z" fill="white"/>
</mask>
<g mask="url(#mask0_14_251)">
<path d="M88.109 58.7713C88.12 58.9309 88.12 59.0904 88.12 59.2515C88.12 64.1581 84.433 69.8169 77.691 69.8169V69.814C75.699 69.8169 73.749 69.239 72.073 68.1493C72.362 68.1846 72.653 68.2022 72.945 68.2029C74.595 68.2044 76.199 67.6434 77.497 66.6103C75.929 66.5802 74.553 65.5441 74.073 64.0316C74.622 64.139 75.188 64.1169 75.728 63.9677C74.018 63.6177 72.788 62.0956 72.788 60.3279V60.2809C73.297 60.5684 73.868 60.7279 74.451 60.7456C72.84 59.6552 72.344 57.4846 73.317 55.7875C75.178 58.1074 77.923 59.5177 80.871 59.6669C80.575 58.3772 80.979 57.0257 81.931 56.1191C83.408 54.7132 85.729 54.7853 87.117 56.2802C87.938 56.1162 88.725 55.811 89.445 55.3787C89.171 56.2382 88.598 56.9684 87.833 57.4324C88.56 57.3456 89.27 57.1485 89.938 56.8478C89.446 57.5949 88.826 58.2456 88.109 58.7713Z" fill="white"/>
</g>
<path d="M114.507 91.6133V84.0533H117.027L117.4 81.0667H114.507V79.2C114.507 78.36 114.787 77.8 116 77.8H117.587V75.0933C117.307 75.0933 116.373 75 115.347 75C113.107 75 111.52 76.4 111.52 78.92V81.0667H109V84.0533H111.52V91.6133H114.507Z" fill="white"/>
<path d="M120.292 45.6C120.228 47.024 119.236 48.972 117.316 51.448C115.332 54.032 113.652 55.324 112.276 55.324C111.424 55.324 110.704 54.536 110.116 52.964C109.724 51.52 109.332 50.076 108.936 48.636C108.5 47.064 108.032 46.276 107.528 46.276C107.42 46.276 107.036 46.508 106.384 46.964L105.696 46.076C106.416 45.44 107.128 44.808 107.828 44.172C108.788 43.34 109.512 42.904 109.992 42.86C111.128 42.752 111.828 43.528 112.092 45.196C112.376 46.992 112.572 48.112 112.684 48.548C113.012 50.04 113.372 50.784 113.764 50.784C114.068 50.784 114.528 50.3 115.14 49.332C115.752 48.364 116.08 47.628 116.124 47.124C116.212 46.288 115.884 45.872 115.14 45.872C114.792 45.872 114.432 45.952 114.06 46.112C114.776 43.756 116.148 42.612 118.172 42.68C119.672 42.72 120.38 43.696 120.292 45.6Z" fill="white"/>
</svg>
