<svg width="148" height="133" viewBox="0 0 148 133" fill="none" xmlns="http://www.w3.org/2000/svg">
<g filter="url(#filter0_d_19_83)">
<path d="M140.515 52.8538C143.909 58.7324 143.909 65.9752 140.515 71.8538L115.485 115.208C112.091 121.086 105.818 124.708 99.0303 124.708L48.9697 124.708C42.1816 124.708 35.9092 121.086 32.5152 115.208L7.48483 71.8538C4.0908 65.9752 4.0908 58.7324 7.48483 52.8538L32.5152 9.5C35.9092 3.62138 42.1816 -4.53805e-06 48.9697 -4.24133e-06L99.0303 -2.05311e-06C105.818 -1.75639e-06 112.091 3.62138 115.485 9.5L140.515 52.8538Z" fill="#EEF7FF"/>
<path d="M138.35 70.6038L113.32 113.958C110.372 119.063 104.925 122.208 99.0303 122.208L48.9697 122.208C43.0748 122.208 37.6277 119.063 34.6802 113.958L9.64988 70.6038C6.70245 65.4987 6.70245 59.2089 9.64988 54.1038L34.6802 10.75C37.6277 5.64488 43.0748 2.5 48.9697 2.5L99.0303 2.5C104.925 2.5 110.372 5.64488 113.32 10.75L138.35 54.1038C141.298 59.2089 141.298 65.4987 138.35 70.6038Z" stroke="white" stroke-width="5"/>
</g>
<g filter="url(#filter1_d_19_83)">
<rect x="9" y="20" width="129" height="84" rx="10" fill="#585858"/>
</g>
<path d="M9 30C9 24.4772 13.4772 20 19 20H128C133.523 20 138 24.4772 138 30V32H9V30Z" fill="#888888"/>
<circle cx="18.5" cy="26.5" r="2.5" fill="#D9D9D9"/>
<circle cx="34.5" cy="26.5" r="2.5" fill="#D9D9D9"/>
<circle cx="26.5" cy="26.5" r="2.5" fill="#D9D9D9"/>
<path d="M105.614 90.9091V90L112.932 86.2727V87.7273L107.318 90.4318L107.364 90.3409V90.5682L107.318 90.4773L112.932 93.1818V94.6364L105.614 90.9091ZM119.888 82.8182L116.138 96.75H114.911L118.661 82.8182H119.888ZM129.182 90.9091L121.864 94.6364V93.1818L127.477 90.4773L127.432 90.5682V90.3409L127.477 90.4318L121.864 87.7273V86.2727L129.182 90V90.9091Z" fill="white"/>
<path d="M21.5 46L31 56.5L21.5 67" stroke="#DADADA" stroke-width="4"/>
<line x1="35" y1="70" x2="53" y2="70" stroke="#DADADA" stroke-width="4"/>
<ellipse cx="82" cy="107.5" rx="15" ry="5.5" fill="#9E9D9D"/>
<rect x="67" y="99" width="30" height="9" fill="#9E9D9D"/>
<ellipse cx="82" cy="99.5" rx="15" ry="5.5" fill="#BEBEBE"/>
<rect x="67" y="90" width="30" height="10" fill="#BEBEBE"/>
<ellipse cx="82" cy="90.5" rx="15" ry="5.5" fill="#D9D9D9"/>
<rect x="67" y="82" width="30" height="8" fill="#D9D9D9"/>
<ellipse cx="82" cy="82.5" rx="15" ry="5.5" fill="#ECECEC"/>
<line x1="95.3462" y1="40.8682" x2="118.242" y2="40.8682" stroke="#3C3C3C"/>
<path d="M97.7148 39.0001L95.3464 40.9719L97.7152 42.9462" stroke="#3C3C3C"/>
<path d="M115.724 39.0001L118.092 40.9719L115.723 42.9462" stroke="#3C3C3C"/>
<rect x="88" y="46" width="18" height="10" fill="#7A7A7A"/>
<rect x="110" y="46" width="18" height="10" fill="#7A7A7A"/>
<rect x="88" y="58" width="18" height="3" fill="#7A7A7A"/>
<rect x="110" y="58" width="18" height="3" fill="#7A7A7A"/>
<rect x="88" y="68" width="18" height="3" fill="#7A7A7A"/>
<rect x="110" y="68" width="18" height="3" fill="#7A7A7A"/>
<rect x="88" y="63" width="18" height="3" fill="#7A7A7A"/>
<rect x="110" y="63" width="18" height="3" fill="#7A7A7A"/>
<defs>
<filter id="filter0_d_19_83" x="0.939308" y="0" width="146.121" height="132.708" filterUnits="userSpaceOnUse" color-interpolation-filters="sRGB">
<feFlood flood-opacity="0" result="BackgroundImageFix"/>
<feColorMatrix in="SourceAlpha" type="matrix" values="0 0 0 0 0 0 0 0 0 0 0 0 0 0 0 0 0 0 127 0" result="hardAlpha"/>
<feOffset dy="4"/>
<feGaussianBlur stdDeviation="2"/>
<feComposite in2="hardAlpha" operator="out"/>
<feColorMatrix type="matrix" values="0 0 0 0 0 0 0 0 0 0 0 0 0 0 0 0 0 0 0.25 0"/>
<feBlend mode="normal" in2="BackgroundImageFix" result="effect1_dropShadow_19_83"/>
<feBlend mode="normal" in="SourceGraphic" in2="effect1_dropShadow_19_83" result="shape"/>
</filter>
<filter id="filter1_d_19_83" x="7" y="20" width="133" height="88" filterUnits="userSpaceOnUse" color-interpolation-filters="sRGB">
<feFlood flood-opacity="0" result="BackgroundImageFix"/>
<feColorMatrix in="SourceAlpha" type="matrix" values="0 0 0 0 0 0 0 0 0 0 0 0 0 0 0 0 0 0 127 0" result="hardAlpha"/>
<feOffset dy="2"/>
<feGaussianBlur stdDeviation="1"/>
<feComposite in2="hardAlpha" operator="out"/>
<feColorMatrix type="matrix" values="0 0 0 0 0 0 0 0 0 0 0 0 0 0 0 0 0 0 0.25 0"/>
<feBlend mode="normal" in2="BackgroundImageFix" result="effect1_dropShadow_19_83"/>
<feBlend mode="normal" in="SourceGraphic" in2="effect1_dropShadow_19_83" result="shape"/>
</filter>
</defs>
</svg>
