<svg width="121" height="121" viewBox="0 0 121 121" fill="none" xmlns="http://www.w3.org/2000/svg">
<circle cx="60.5" cy="60.5" r="60.5" fill="#E7F1FD"/>
<rect x="28" y="22" width="65" height="76" rx="6" fill="#B1C0E6" stroke="#8FA3CA" stroke-width="2"/>
<rect x="35" y="28" width="14" height="14" rx="4" fill="#8A9EC4"/>
<rect x="55" y="28" width="18" height="5" rx="2" fill="#8A9EC3"/>
<rect x="55" y="37" width="29" height="5" rx="2" fill="#8A9EC3"/>
<rect x="36" y="79" width="14" height="14" rx="4" fill="#8A9EC4"/>
<rect x="56" y="79" width="18" height="5" rx="2" fill="#8A9EC3"/>
<rect x="56" y="88" width="29" height="5" rx="2" fill="#8A9EC3"/>
<g filter="url(#filter0_d_32_215)">
<rect x="23" y="46" width="75" height="27" rx="4" fill="white"/>
</g>
<rect x="36" y="53" width="14" height="14" rx="4" fill="#4573CB"/>
<rect x="56" y="53" width="18" height="5" rx="2" fill="#4573CB"/>
<rect x="56" y="62" width="29" height="5" rx="2" fill="#9DC0FF"/>
<defs>
<filter id="filter0_d_32_215" x="19" y="46" width="83" height="35" filterUnits="userSpaceOnUse" color-interpolation-filters="sRGB">
<feFlood flood-opacity="0" result="BackgroundImageFix"/>
<feColorMatrix in="SourceAlpha" type="matrix" values="0 0 0 0 0 0 0 0 0 0 0 0 0 0 0 0 0 0 127 0" result="hardAlpha"/>
<feOffset dy="4"/>
<feGaussianBlur stdDeviation="2"/>
<feComposite in2="hardAlpha" operator="out"/>
<feColorMatrix type="matrix" values="0 0 0 0 0 0 0 0 0 0 0 0 0 0 0 0 0 0 0.25 0"/>
<feBlend mode="normal" in2="BackgroundImageFix" result="effect1_dropShadow_32_215"/>
<feBlend mode="normal" in="SourceGraphic" in2="effect1_dropShadow_32_215" result="shape"/>
</filter>
</defs>
</svg>
