<svg width="127" height="112" viewBox="0 0 127 112" fill="none" xmlns="http://www.w3.org/2000/svg">
<path d="M0 56.0118L31.7448 3.8147e-05H95.2901L127 55.9501L95.2333 112H31.794L0 56.0118Z" fill="#E6F0F9"/>
<path d="M64.5865 76.3109L32.1645 68.3092V41.701L64.5865 49.4816L97.0081 41.701V68.5443L64.5865 76.3109Z" fill="#E0F3FB" stroke="black"/>
<path d="M32.2739 47.0314L27.1925 45.8526V74.5296L64.7803 83.5674L102.346 74.451V45.8526L97.188 47.0314" stroke="black"/>
<path d="M27.1925 73.6886V79.245L64.7803 88.2824L102.346 79.1664V73.8223" stroke="black"/>
<path d="M64.7307 49.4332V88.2904" stroke="black"/>
<path d="M71.3603 59.7323V52.607L91.2283 47.7372V54.8626L71.3603 59.7323Z" fill="#65C3EB" stroke="black"/>
<path d="M37.8378 48.5744L58.3727 53.2404" stroke="black" stroke-width="2" stroke-linecap="round"/>
<path d="M37.7461 54.0034L58.2809 59.064" stroke="black" stroke-width="2" stroke-linecap="round"/>
<path d="M37.6708 59.5671L57.9724 64.7851" stroke="black" stroke-width="2" stroke-linecap="round"/>
<path d="M78.7979 26.426C78.7979 32.7067 74.6511 38.0188 68.946 39.7737C67.6464 40.1734 64.7382 46.841 64.7382 46.841C64.7382 46.841 61.8211 40.1405 60.4387 39.6822C54.8816 37.8401 50.8729 32.6012 50.8729 26.426C50.8729 18.7147 57.1241 12.4635 64.8354 12.4635C72.5467 12.4635 78.7979 18.7147 78.7979 26.426Z" stroke="black" stroke-linecap="round"/>
<path d="M66.4011 28.8495C68.6197 28.8495 70.4182 27.051 70.4182 24.8324C70.4182 22.6139 68.6197 20.8153 66.4011 20.8153C64.1825 20.8153 62.384 22.6139 62.384 24.8324C62.384 27.051 64.1825 28.8495 66.4011 28.8495Z" stroke="black" stroke-linecap="round"/>
<path d="M63.364 27.5927L59.0956 31.8611" stroke="black"/>
</svg>
