<svg width="38" height="36" viewBox="0 0 38 36" fill="none" xmlns="http://www.w3.org/2000/svg">
<path d="M37.7061 0.426246C37.5725 0.291099 37.3322 0.129883 36.946 0.129883C36.4514 0.129883 34.9468 0.129883 25.7105 8.02272C21.8641 11.3095 17.4915 15.2931 13.7888 18.866C13.7863 18.8684 13.7833 18.8699 13.7808 18.8725C13.7788 18.8745 13.7775 18.8768 13.7756 18.8788C12.7027 19.9142 11.6868 20.9145 10.756 21.8534C4.99235 22.5534 4.24472 26.2445 3.64229 29.218C3.12579 31.7679 2.758 33.1084 0.645116 33.2788C0.322215 33.3048 0.059288 33.5526 0.00866671 33.8724C-0.0419546 34.1923 0.133057 34.5138 0.432226 34.6381C0.551472 34.6879 3.39281 35.8704 6.71605 35.8704C6.71652 35.8704 6.71675 35.8704 6.71722 35.8704C10.3659 35.8704 15.0089 34.4337 16.5113 27.7075C20.8949 23.2582 26.483 17.0468 30.798 11.8247C33.1715 8.95225 34.9954 6.58392 36.2193 4.78552C37.9639 2.22172 38.353 1.08093 37.7061 0.426246ZM14.2634 20.359L18.0018 24.1426C17.2656 24.9196 16.5493 25.6645 15.8645 26.3643L12.0688 22.5225C12.7597 21.8292 13.4957 21.1043 14.2634 20.359ZM6.71722 34.4674C6.71698 34.4674 6.7164 34.4674 6.71617 34.4674C5.30368 34.4674 3.96683 34.2128 2.93862 33.9575C4.31697 32.9674 4.68313 31.1562 5.01714 29.5068C5.60367 26.6117 6.15804 23.8693 10.8227 23.2658L15.0971 27.6007C14.0163 32.1464 11.1988 34.4674 6.71722 34.4674ZM29.1318 11.6354C26.0501 15.3309 22.346 19.5077 18.964 23.1206L15.2729 19.3847C18.8398 15.9632 22.9648 12.2145 26.6143 9.09547C32.949 3.68191 35.4757 2.14047 36.4275 1.70382C36.0017 2.66223 34.487 5.21364 29.1318 11.6354Z" fill="white"/>
</svg>
