<svg width="35" height="33" viewBox="0 0 35 33" fill="none" xmlns="http://www.w3.org/2000/svg">
<path d="M34.7294 0.273638C34.6063 0.148855 34.385 0 34.0292 0C33.5737 0 32.1879 0 23.6807 7.28763C20.138 10.3224 16.1106 14.0006 12.7002 17.2994C12.6979 17.3017 12.6951 17.3031 12.6929 17.3055C12.691 17.3073 12.6899 17.3095 12.688 17.3113C11.6999 18.2673 10.7641 19.1909 9.9069 20.0578C4.59822 20.7041 3.90962 24.1122 3.35475 26.8577C2.87902 29.212 2.54027 30.4498 0.594186 30.6071C0.296777 30.6312 0.0546074 30.8599 0.0079825 31.1552C-0.0386424 31.4506 0.122553 31.7474 0.398103 31.8622C0.507935 31.9081 3.12496 33 6.18584 33C6.18627 33 6.18649 33 6.18692 33C9.54758 33 13.824 31.6735 15.2078 25.463C19.2453 21.3549 24.3923 15.6197 28.3666 10.7981C30.5527 8.14589 32.2326 5.95916 33.3599 4.29865C34.9668 1.93144 35.3251 0.878125 34.7294 0.273638ZM13.1374 18.678L16.5806 22.1715C15.9026 22.8889 15.2428 23.5767 14.612 24.2229L11.116 20.6756C11.7524 20.0355 12.4302 19.3661 13.1374 18.678ZM6.18692 31.7046C6.1867 31.7046 6.18616 31.7046 6.18595 31.7046C4.88497 31.7046 3.65367 31.4695 2.70663 31.2338C3.97616 30.3196 4.31341 28.6473 4.62105 27.1244C5.16128 24.4513 5.67189 21.9191 9.96828 21.3619L13.9052 25.3644C12.9097 29.5616 10.3147 31.7046 6.18692 31.7046ZM26.832 10.6233C23.9936 14.0354 20.5819 17.8919 17.4668 21.2278L14.0672 17.7784C17.3525 14.6193 21.1518 11.158 24.5132 8.27812C30.3478 3.27966 32.6751 1.85642 33.5517 1.45325C33.1595 2.33818 31.7644 4.69395 26.832 10.6233Z" fill="white"/>
</svg>
