<svg width="27" height="38" viewBox="0 0 27 38" fill="none" xmlns="http://www.w3.org/2000/svg">
<path d="M26.3045 10.3903C26.2003 10.7441 25.9071 11.0103 25.545 11.0801L20.1532 12.1203L18.3547 17.3927C18.6608 17.7402 18.824 18.195 18.824 18.6946V36.0277C18.824 37.1169 17.9892 38 16.8999 38H6.99547C5.90622 38 5.01789 37.1169 5.01789 36.0277V18.6946C5.01789 18.1382 5.25168 17.6366 5.62221 17.2782L3.89183 10.3899C3.84857 10.3915 3.81083 10.3953 3.76744 10.3953C2.22075 10.3953 0.837101 9.41769 0.320485 7.96264L0.29445 7.8848C-0.676588 5.06557 1.05879 1.36537 1.13295 1.20916C1.24682 0.969986 1.45246 0.786298 1.70308 0.700173C1.95356 0.613654 2.22837 0.631405 2.46532 0.750007C2.61981 0.827322 6.26006 2.67433 7.22925 5.48804L7.25779 5.56891C7.79242 7.1699 7.14313 8.89187 5.7867 9.78217L7.51892 16.699H10.8034V4.66506L8.98593 1.47924C8.80974 1.17419 8.82065 0.798131 8.99685 0.49308C9.17304 0.188028 9.50952 0 9.86177 0H13.7334C14.0858 0 14.4113 0.188028 14.5874 0.49308C14.7636 0.798131 14.7417 1.17419 14.5655 1.47924L12.7754 4.54172V16.699H16.5235L18.3049 11.4205L15.2713 6.82291C15.0699 6.51693 15.0548 6.12444 15.2319 5.80388C15.4092 5.48331 15.7509 5.28976 16.1157 5.29489C19.8309 5.37273 23.3556 6.83027 26.0404 9.39928C26.3071 9.6541 26.4087 10.0365 26.3045 10.3903Z" fill="white"/>
</svg>
